<svg version="1.1" id="Layer_1" xmlns="http://www.w3.org/2000/svg" xmlns:xlink="http://www.w3.org/1999/xlink" x="0px" y="0px"
	 width="100%" viewBox="0 0 2800 2800" enable-background="new 0 0 2800 2800" xml:space="preserve">
<path fill="#000000" opacity="1.000000" stroke="none" 
	d="
M1356.000000,2802.000000 
	C904.000061,2802.000000 453.000153,2802.000000 2.000182,2802.000000 
	C2.000121,1868.666870 2.000121,935.333801 2.000061,2.000557 
	C935.332947,2.000371 1868.665894,2.000371 2801.999023,2.000186 
	C2801.999512,935.332764 2801.999512,1868.665527 2801.999756,2801.999023 
	C2320.333252,2802.000000 1838.666626,2802.000000 1356.000000,2802.000000 
M1238.961426,2127.464111 
	C1254.939209,2130.852539 1270.841309,2134.673096 1286.920044,2137.484619 
	C1298.490356,2139.508301 1310.295898,2140.186035 1323.616943,2142.101318 
	C1334.522461,2142.882812 1345.416504,2143.980225 1356.335938,2144.377197 
	C1376.215332,2145.100342 1396.109741,2145.407227 1417.837891,2146.258057 
	C1442.244141,2144.686279 1466.675171,2143.413818 1491.044434,2141.395996 
	C1500.810791,2140.587158 1510.441528,2138.139404 1521.845581,2136.443115 
	C1543.417603,2131.824707 1565.033447,2127.397705 1586.535522,2122.473633 
	C1593.182007,2120.951660 1599.518433,2118.075928 1607.534790,2116.265869 
	C1617.647095,2112.993164 1627.817749,2109.889404 1637.861816,2106.418945 
	C1688.107422,2089.058594 1735.479004,2065.669678 1780.141479,2036.972534 
	C1839.584717,1998.778320 1892.186646,1952.783447 1938.014038,1898.793213 
	C2002.321045,1823.031616 2047.759521,1737.364746 2076.025146,1642.344116 
	C2085.046875,1612.016479 2090.517090,1580.996338 2094.780762,1549.656860 
	C2099.711426,1513.417969 2102.094238,1477.002319 2103.464844,1440.540649 
	C2104.490723,1413.249023 2103.666992,1385.887939 2103.666748,1358.557739 
	C2103.666748,1355.311279 2103.666748,1352.064941 2103.666748,1347.569336 
	C2045.233276,1347.569336 1987.802002,1347.569336 1930.537598,1347.569336 
	C1928.432983,1329.507324 1929.268921,1180.760132 1931.640503,1173.120850 
	C1988.530762,1173.120850 2045.706543,1173.120850 2103.110352,1173.120850 
	C2103.110352,1114.378418 2103.110352,1056.544678 2103.110352,997.673157 
	C2099.317871,997.673157 2096.073486,997.673279 2092.828857,997.673157 
	C2040.501587,997.672058 1988.174316,997.664307 1935.847046,997.688904 
	C1933.197510,997.690186 1930.548096,997.969360 1928.387939,996.282043 
	C1928.336060,953.197571 1928.284180,910.113037 1928.232422,867.199524 
	C1907.597168,865.008606 1803.605713,865.861938 1796.947632,868.062866 
	C1796.947632,911.236145 1796.947632,954.356873 1796.947632,998.332886 
	C1800.823486,998.332886 1804.093140,998.333374 1807.362793,998.332947 
	C1824.330444,998.330566 1841.298340,998.377258 1858.265747,998.313293 
	C1881.545166,998.225525 1904.824341,998.053894 1928.136597,999.803467 
	C1928.192627,1055.673340 1928.256714,1111.543335 1928.260620,1167.413208 
	C1928.260742,1168.936279 1927.612427,1170.459229 1927.186768,1172.333252 
	C1922.447998,1172.333252 1918.145386,1172.305298 1913.843262,1172.338135 
	C1895.896851,1172.475464 1877.950439,1172.630859 1858.159912,1172.420288 
	C1823.644409,1172.420288 1789.128906,1172.420288 1754.230225,1172.420288 
	C1753.992920,1176.043701 1753.689087,1178.636230 1753.672974,1181.230591 
	C1753.208984,1256.079834 1752.796631,1330.929443 1752.319824,1405.778564 
	C1752.176147,1428.320557 1750.862183,1450.752197 1748.268555,1473.200562 
	C1745.503784,1497.130005 1741.807617,1520.822632 1735.801636,1544.103394 
	C1721.836670,1598.234253 1695.882812,1645.799194 1656.856323,1686.031616 
	C1649.233887,1693.889771 1641.478516,1701.619141 1632.542480,1710.023682 
	C1612.609741,1727.089600 1591.370728,1742.362305 1567.893066,1754.097900 
	C1550.772339,1762.655884 1532.998169,1769.906494 1513.989990,1777.732422 
	C1503.156860,1781.116089 1492.535889,1785.795532 1481.446045,1787.610962 
	C1459.098267,1791.269409 1436.495483,1793.369141 1412.161987,1795.753662 
	C1403.598389,1795.706543 1394.959229,1796.369263 1386.486572,1795.467651 
	C1367.610596,1793.458740 1348.817749,1790.667969 1328.434814,1787.713623 
	C1324.100830,1786.541138 1319.780518,1785.315063 1315.430542,1784.205444 
	C1294.126953,1778.770386 1273.680054,1771.011108 1253.764282,1761.751831 
	C1251.468384,1760.684448 1248.771606,1760.479614 1245.669189,1758.530029 
	C1240.176636,1755.303101 1234.712158,1752.027100 1229.186768,1748.857666 
	C1203.742798,1734.262451 1180.574585,1716.677124 1159.567993,1696.205933 
	C1158.294800,1694.965332 1156.225708,1694.541138 1154.379883,1692.322632 
	C1149.678589,1686.805908 1145.072876,1681.204346 1140.259888,1675.786865 
	C1117.060791,1649.673706 1098.821533,1620.399292 1085.785522,1588.075806 
	C1079.463257,1572.399780 1074.851929,1556.033813 1069.511597,1538.429565 
	C1059.499878,1498.032349 1055.971313,1456.809937 1054.446167,1415.400757 
	C1053.589966,1392.154907 1053.743896,1368.866577 1053.699829,1345.597046 
	C1053.604614,1295.368774 1053.684814,1245.140137 1053.658447,1194.911743 
	C1053.656616,1191.266235 1053.374146,1187.620972 1053.588867,1182.136841 
	C1053.617920,1082.065308 1053.649536,981.993835 1053.657104,881.922302 
	C1053.657227,879.941101 1053.374512,877.959900 1053.593506,874.140015 
	C1053.593506,831.640869 1053.593506,789.141785 1053.593506,746.114441 
	C1037.082642,746.114441 1021.540344,746.114441 1004.155579,745.744751 
	C904.322021,745.744751 804.488464,745.744751 703.665771,745.744751 
	C703.665771,750.431091 703.665771,754.341431 703.665771,758.251770 
	C703.665649,883.158752 703.216431,1008.067871 703.796753,1132.972168 
	C704.335022,1248.817993 701.076538,1364.693115 705.830688,1480.503418 
	C706.679504,1501.181274 707.288879,1521.929688 711.333130,1542.450806 
	C715.688477,1564.550415 717.862183,1587.090576 722.486084,1609.124146 
	C727.997131,1635.385132 735.201538,1661.281006 746.018677,1687.526245 
	C750.523926,1698.944214 754.837646,1710.442261 759.574768,1721.763184 
	C769.095947,1744.516846 778.851929,1767.171875 792.471436,1789.360596 
	C800.238159,1802.158447 807.587708,1815.233765 815.869690,1827.689087 
	C828.174683,1846.194336 839.970154,1865.124512 855.711731,1882.612305 
	C881.974792,1915.853882 910.882935,1946.554321 944.095215,1974.796143 
	C966.044678,1991.816528 987.638306,2009.325439 1010.078247,2025.672485 
	C1023.360474,2035.348145 1037.979736,2043.188721 1053.087036,2052.704346 
	C1070.859497,2062.103516 1088.369507,2072.050537 1106.486694,2080.729980 
	C1121.280273,2087.817383 1136.799194,2093.390625 1153.243774,2100.409912 
	C1170.193237,2106.254150 1187.035400,2112.438965 1204.130249,2117.821289 
	C1215.183594,2121.301514 1226.606445,2123.607666 1238.961426,2127.464111 
M2030.985229,734.338440 
	C2011.462402,734.338440 1991.939453,734.338440 1972.395386,734.338440 
	C1972.395386,764.741577 1972.395386,793.825134 1972.395386,823.041443 
	C2001.915649,823.041443 2030.695679,823.041443 2059.381348,823.041443 
	C2061.246094,809.677307 2060.679443,742.204163 2058.737549,735.240662 
	C2058.134521,735.006470 2057.534180,734.576172 2056.927979,734.567810 
	C2048.944336,734.456848 2040.959839,734.405334 2030.985229,734.338440 
z"/>
<path fill="#006FFF" opacity="1.000000" stroke="none" 
	d="
M1927.898560,998.119141 
	C1930.548096,997.969360 1933.197510,997.690186 1935.847046,997.688904 
	C1988.174316,997.664307 2040.501587,997.672058 2092.828857,997.673157 
	C2096.073486,997.673279 2099.317871,997.673157 2103.110352,997.673157 
	C2103.110352,1056.544678 2103.110352,1114.378418 2103.110352,1173.120850 
	C2045.706543,1173.120850 1988.530762,1173.120850 1931.640503,1173.120850 
	C1929.268921,1180.760132 1928.432983,1329.507324 1930.537598,1347.569336 
	C1987.802002,1347.569336 2045.233276,1347.569336 2103.666748,1347.569336 
	C2103.666748,1352.064941 2103.666748,1355.311279 2103.666748,1358.557739 
	C2103.666992,1385.887939 2104.490723,1413.249023 2103.464844,1440.540649 
	C2102.094238,1477.002319 2099.711426,1513.417969 2094.780762,1549.656860 
	C2090.517090,1580.996338 2085.046875,1612.016479 2076.025146,1642.344116 
	C2047.759521,1737.364746 2002.321045,1823.031616 1938.014038,1898.793213 
	C1892.186646,1952.783447 1839.584717,1998.778320 1780.141479,2036.972534 
	C1735.479004,2065.669678 1688.107422,2089.058594 1637.861816,2106.418945 
	C1627.817749,2109.889404 1617.647095,2112.993164 1606.778687,2115.236328 
	C1606.152588,2112.882568 1606.112549,2111.514404 1606.437500,2110.239746 
	C1614.068970,2080.304199 1621.620361,2050.347168 1629.484009,2020.472290 
	C1631.577515,2012.518921 1635.090332,2004.938721 1637.179932,1996.984619 
	C1641.056396,1982.228882 1644.171509,1967.273926 1647.979004,1952.498779 
	C1650.381958,1943.173462 1653.796753,1934.107666 1656.162109,1924.774658 
	C1659.260132,1912.551147 1661.017334,1899.946533 1664.720703,1887.927734 
	C1669.592896,1872.115356 1674.705078,1856.433838 1678.430908,1840.261719 
	C1681.484375,1827.007690 1686.469971,1814.210327 1690.063599,1801.064209 
	C1691.800171,1794.712158 1691.636475,1787.822388 1693.527588,1781.535400 
	C1696.296265,1772.330322 1700.443726,1763.547363 1703.416626,1754.393921 
	C1705.459473,1748.103882 1706.531616,1741.496094 1707.988770,1735.019409 
	C1708.788574,1731.464966 1709.173950,1727.786865 1710.285889,1724.338501 
	C1714.968140,1709.817139 1719.884277,1695.371216 1724.632080,1680.870728 
	C1725.351685,1678.673096 1725.573608,1676.317505 1726.130493,1674.060913 
	C1729.942505,1658.616211 1733.718994,1643.162476 1737.630981,1627.742920 
	C1741.551758,1612.288086 1746.789795,1597.051147 1749.212646,1581.372803 
	C1750.874023,1570.623047 1753.509521,1560.739258 1758.217651,1551.053589 
	C1760.345947,1546.675537 1760.776245,1541.465820 1761.932129,1536.622803 
	C1763.692261,1529.247314 1765.163452,1521.791870 1767.225220,1514.502686 
	C1769.115967,1507.817139 1772.048706,1501.415039 1773.767334,1494.694824 
	C1776.485840,1484.065430 1777.273926,1472.765137 1781.231812,1462.671143 
	C1787.225830,1447.384521 1791.271606,1431.716553 1795.158203,1415.864868 
	C1800.777222,1392.946655 1806.941772,1370.156006 1813.246582,1347.414307 
	C1818.205444,1329.527344 1824.036499,1311.880737 1828.915527,1293.973633 
	C1833.884399,1275.736328 1837.968140,1257.259277 1842.813110,1238.986328 
	C1845.961304,1227.113525 1848.822388,1215.014038 1853.579346,1203.763306 
	C1857.858276,1193.642822 1858.706421,1183.271484 1860.004028,1172.779541 
	C1877.950439,1172.630859 1895.896851,1172.475464 1913.843262,1172.338135 
	C1918.145386,1172.305298 1922.447998,1172.333252 1927.186768,1172.333252 
	C1927.612427,1170.459229 1928.260742,1168.936279 1928.260620,1167.413208 
	C1928.256714,1111.543335 1928.192627,1055.673340 1928.074341,998.916626 
	C1928.012085,998.029846 1927.898560,998.119141 1927.898560,998.119141 
z"/>
<path fill="#45C6FD" opacity="1.000000" stroke="none" 
	d="
M745.941040,1686.020508 
	C735.201538,1661.281006 727.997131,1635.385132 722.486084,1609.124146 
	C717.862183,1587.090576 715.688477,1564.550415 711.333130,1542.450806 
	C707.288879,1521.929688 706.679504,1501.181274 705.830688,1480.503418 
	C701.076538,1364.693115 704.335022,1248.817993 703.796753,1132.972168 
	C703.216431,1008.067871 703.665649,883.158752 703.665771,758.251770 
	C703.665771,754.341431 703.665771,750.431091 703.665771,745.744751 
	C804.488464,745.744751 904.322021,745.744751 1005.074829,746.760986 
	C1002.118164,764.251099 998.566528,780.810364 994.265198,797.172424 
	C990.734375,810.603577 986.048035,823.727661 982.354492,837.120300 
	C978.045776,852.743530 974.329773,868.529297 970.223755,884.209778 
	C967.028503,896.412109 963.552856,908.540955 960.339172,920.738647 
	C955.180725,940.318115 950.402344,960.001709 944.974304,979.505188 
	C938.387207,1003.173462 931.154663,1026.661377 924.467468,1050.302612 
	C920.312988,1064.990356 916.590637,1079.801880 912.801147,1094.590332 
	C911.403076,1100.046387 910.653076,1105.676636 909.112732,1111.086548 
	C905.027161,1125.436035 900.083191,1139.564697 896.537231,1154.039917 
	C886.972778,1193.082642 873.843140,1231.149902 865.203918,1270.452148 
	C862.378784,1283.304443 857.397827,1295.667725 854.037231,1308.421753 
	C850.654541,1321.259766 848.490723,1334.421875 845.030212,1347.236084 
	C838.368408,1371.904785 831.185547,1396.432861 824.186035,1421.009888 
	C819.095215,1438.884766 813.871948,1456.722412 808.853455,1474.617432 
	C803.566528,1493.469727 798.489746,1512.380737 793.251953,1531.247070 
	C788.534363,1548.239868 783.778320,1565.222290 778.940125,1582.181030 
	C772.222473,1605.727539 767.962952,1629.971313 758.890564,1652.854370 
	C758.292419,1654.363281 758.389771,1656.132935 757.993469,1657.739380 
	C756.083679,1665.479126 753.992859,1673.176392 752.222900,1680.947266 
	C751.411133,1684.511108 749.394104,1686.011841 745.941040,1686.020508 
z"/>
<path fill="#40C0FD" opacity="1.000000" stroke="none" 
	d="
M745.979858,1686.773438 
	C749.394104,1686.011841 751.411133,1684.511108 752.222900,1680.947266 
	C753.992859,1673.176392 756.083679,1665.479126 757.993469,1657.739380 
	C758.389771,1656.132935 758.292419,1654.363281 758.890564,1652.854370 
	C767.962952,1629.971313 772.222473,1605.727539 778.940125,1582.181030 
	C783.778320,1565.222290 788.534363,1548.239868 793.251953,1531.247070 
	C798.489746,1512.380737 803.566528,1493.469727 808.853455,1474.617432 
	C813.871948,1456.722412 819.095215,1438.884766 824.186035,1421.009888 
	C831.185547,1396.432861 838.368408,1371.904785 845.030212,1347.236084 
	C848.490723,1334.421875 850.654541,1321.259766 854.037231,1308.421753 
	C857.397827,1295.667725 862.378784,1283.304443 865.203918,1270.452148 
	C873.843140,1231.149902 886.972778,1193.082642 896.537231,1154.039917 
	C900.083191,1139.564697 905.027161,1125.436035 909.112732,1111.086548 
	C910.653076,1105.676636 911.403076,1100.046387 912.801147,1094.590332 
	C916.590637,1079.801880 920.312988,1064.990356 924.467468,1050.302612 
	C931.154663,1026.661377 938.387207,1003.173462 944.974304,979.505188 
	C950.402344,960.001709 955.180725,940.318115 960.339172,920.738647 
	C963.552856,908.540955 967.028503,896.412109 970.223755,884.209778 
	C974.329773,868.529297 978.045776,852.743530 982.354492,837.120300 
	C986.048035,823.727661 990.734375,810.603577 994.265198,797.172424 
	C998.566528,780.810364 1002.118164,764.251099 1005.996033,746.945801 
	C1021.540344,746.114441 1037.082642,746.114441 1053.593506,746.114441 
	C1053.593506,789.141785 1053.593506,831.640869 1052.727295,875.131897 
	C1046.131714,877.982971 1045.556641,883.279724 1044.015137,887.918701 
	C1041.398193,895.793945 1038.772827,903.666687 1036.221924,911.563416 
	C1034.895386,915.669922 1033.534912,919.780029 1032.508057,923.966492 
	C1027.288330,945.246582 1022.493408,966.636108 1016.947266,987.829651 
	C1008.213684,1021.203674 997.189270,1053.947632 989.903076,1087.738281 
	C987.105225,1100.713867 982.539673,1113.301025 978.988708,1126.123047 
	C974.388062,1142.735474 969.960022,1159.396118 965.529419,1176.055176 
	C963.229004,1184.705078 961.326294,1193.467529 958.811218,1202.052246 
	C954.886780,1215.447266 950.325684,1228.658325 946.520325,1242.084961 
	C940.646545,1262.809814 935.201233,1283.655640 929.527832,1304.437622 
	C928.564514,1307.966309 927.244629,1311.398315 926.302856,1314.931885 
	C921.532104,1332.831421 916.823914,1350.747803 912.111938,1368.662964 
	C910.758972,1373.807129 909.555725,1378.992188 908.125549,1384.114258 
	C905.990356,1391.761719 903.785645,1399.391724 901.462891,1406.984009 
	C900.592651,1409.828491 898.965698,1412.463745 898.272766,1415.336548 
	C894.883789,1429.386230 893.344971,1443.546387 887.384155,1457.375977 
	C879.980286,1474.553345 877.186890,1493.724609 872.472900,1512.052856 
	C868.354126,1528.066895 864.563904,1544.169189 860.191833,1560.112793 
	C857.059753,1571.534546 850.223816,1581.983643 851.347168,1594.514526 
	C851.402466,1595.130737 850.992432,1595.786255 850.810486,1596.426636 
	C845.541016,1614.973999 840.281250,1633.524048 835.001892,1652.068604 
	C831.093506,1665.797363 827.148438,1679.515869 823.241455,1693.244995 
	C820.705933,1702.154663 818.195190,1711.071533 815.705811,1719.994263 
	C815.081360,1722.232178 814.584290,1724.505493 814.024780,1726.761475 
	C810.756409,1739.940063 807.585693,1753.144043 804.166138,1766.283203 
	C802.911011,1771.105957 801.132812,1775.798950 799.468750,1780.507080 
	C798.221008,1784.037109 796.620789,1787.349243 792.300659,1787.992310 
	C778.851929,1767.171875 769.095947,1744.516846 759.574768,1721.763184 
	C754.837646,1710.442261 750.523926,1698.944214 745.979858,1686.773438 
z"/>
<path fill="#3BBAFD" opacity="1.000000" stroke="none" 
	d="
M792.386047,1788.676514 
	C796.620789,1787.349243 798.221008,1784.037109 799.468750,1780.507080 
	C801.132812,1775.798950 802.911011,1771.105957 804.166138,1766.283203 
	C807.585693,1753.144043 810.756409,1739.940063 814.024780,1726.761475 
	C814.584290,1724.505493 815.081360,1722.232178 815.705811,1719.994263 
	C818.195190,1711.071533 820.705933,1702.154663 823.241455,1693.244995 
	C827.148438,1679.515869 831.093506,1665.797363 835.001892,1652.068604 
	C840.281250,1633.524048 845.541016,1614.973999 850.810486,1596.426636 
	C850.992432,1595.786255 851.402466,1595.130737 851.347168,1594.514526 
	C850.223816,1581.983643 857.059753,1571.534546 860.191833,1560.112793 
	C864.563904,1544.169189 868.354126,1528.066895 872.472900,1512.052856 
	C877.186890,1493.724609 879.980286,1474.553345 887.384155,1457.375977 
	C893.344971,1443.546387 894.883789,1429.386230 898.272766,1415.336548 
	C898.965698,1412.463745 900.592651,1409.828491 901.462891,1406.984009 
	C903.785645,1399.391724 905.990356,1391.761719 908.125549,1384.114258 
	C909.555725,1378.992188 910.758972,1373.807129 912.111938,1368.662964 
	C916.823914,1350.747803 921.532104,1332.831421 926.302856,1314.931885 
	C927.244629,1311.398315 928.564514,1307.966309 929.527832,1304.437622 
	C935.201233,1283.655640 940.646545,1262.809814 946.520325,1242.084961 
	C950.325684,1228.658325 954.886780,1215.447266 958.811218,1202.052246 
	C961.326294,1193.467529 963.229004,1184.705078 965.529419,1176.055176 
	C969.960022,1159.396118 974.388062,1142.735474 978.988708,1126.123047 
	C982.539673,1113.301025 987.105225,1100.713867 989.903076,1087.738281 
	C997.189270,1053.947632 1008.213684,1021.203674 1016.947266,987.829651 
	C1022.493408,966.636108 1027.288330,945.246582 1032.508057,923.966492 
	C1033.534912,919.780029 1034.895386,915.669922 1036.221924,911.563416 
	C1038.772827,903.666687 1041.398193,895.793945 1044.015137,887.918701 
	C1045.556641,883.279724 1046.131714,877.982971 1052.542480,876.051270 
	C1053.374512,877.959900 1053.657227,879.941101 1053.657104,881.922302 
	C1053.649536,981.993835 1053.617920,1082.065308 1052.724121,1183.128418 
	C1046.135376,1185.984375 1045.344849,1191.221313 1044.049194,1195.927002 
	C1037.437622,1219.938477 1030.945068,1243.982910 1024.437622,1268.023071 
	C1023.308044,1272.195679 1022.388977,1276.426147 1021.229065,1280.589844 
	C1018.217346,1291.400757 1014.996338,1302.154785 1012.098145,1312.995361 
	C1008.331970,1327.082642 1004.896179,1341.258301 1001.124939,1355.344116 
	C998.895691,1363.670532 996.171692,1371.863647 993.884766,1380.175781 
	C989.568665,1395.863159 985.437561,1411.601196 981.166626,1427.301147 
	C979.514221,1433.375244 977.591248,1439.376343 975.964478,1445.456909 
	C970.904236,1464.371704 965.891541,1483.299316 960.930481,1502.240479 
	C957.988220,1513.473511 955.316284,1524.778931 952.273926,1535.984253 
	C948.451904,1550.060547 944.445862,1564.088257 940.387329,1578.098633 
	C936.875183,1590.222900 932.949951,1602.231567 929.632080,1614.407104 
	C926.672119,1625.269165 924.343018,1636.302002 921.636292,1647.234863 
	C920.357849,1652.398438 919.610596,1657.882324 917.292847,1662.562622 
	C911.281433,1674.702026 909.294373,1687.868408 906.325378,1700.800903 
	C903.435486,1713.388550 901.958435,1726.371948 895.316406,1737.872437 
	C894.373169,1739.505737 894.479309,1741.727295 894.005676,1743.653442 
	C892.977966,1747.832275 891.912476,1752.002075 890.820374,1756.164673 
	C889.224792,1762.246338 887.554077,1768.308472 885.983887,1774.396606 
	C883.247681,1785.005371 880.768982,1795.685303 877.799927,1806.227661 
	C874.845276,1816.718994 871.337891,1827.053101 868.221191,1837.500488 
	C863.864990,1852.103027 859.646362,1866.746826 855.368896,1881.372925 
	C839.970154,1865.124512 828.174683,1846.194336 815.869690,1827.689087 
	C807.587708,1815.233765 800.238159,1802.158447 792.386047,1788.676514 
z"/>
<path fill="#35B2FD" opacity="1.000000" stroke="none" 
	d="
M855.540283,1881.992676 
	C859.646362,1866.746826 863.864990,1852.103027 868.221191,1837.500488 
	C871.337891,1827.053101 874.845276,1816.718994 877.799927,1806.227661 
	C880.768982,1795.685303 883.247681,1785.005371 885.983887,1774.396606 
	C887.554077,1768.308472 889.224792,1762.246338 890.820374,1756.164673 
	C891.912476,1752.002075 892.977966,1747.832275 894.005676,1743.653442 
	C894.479309,1741.727295 894.373169,1739.505737 895.316406,1737.872437 
	C901.958435,1726.371948 903.435486,1713.388550 906.325378,1700.800903 
	C909.294373,1687.868408 911.281433,1674.702026 917.292847,1662.562622 
	C919.610596,1657.882324 920.357849,1652.398438 921.636292,1647.234863 
	C924.343018,1636.302002 926.672119,1625.269165 929.632080,1614.407104 
	C932.949951,1602.231567 936.875183,1590.222900 940.387329,1578.098633 
	C944.445862,1564.088257 948.451904,1550.060547 952.273926,1535.984253 
	C955.316284,1524.778931 957.988220,1513.473511 960.930481,1502.240479 
	C965.891541,1483.299316 970.904236,1464.371704 975.964478,1445.456909 
	C977.591248,1439.376343 979.514221,1433.375244 981.166626,1427.301147 
	C985.437561,1411.601196 989.568665,1395.863159 993.884766,1380.175781 
	C996.171692,1371.863647 998.895691,1363.670532 1001.124939,1355.344116 
	C1004.896179,1341.258301 1008.331970,1327.082642 1012.098145,1312.995361 
	C1014.996338,1302.154785 1018.217346,1291.400757 1021.229065,1280.589844 
	C1022.388977,1276.426147 1023.308044,1272.195679 1024.437622,1268.023071 
	C1030.945068,1243.982910 1037.437622,1219.938477 1044.049194,1195.927002 
	C1045.344849,1191.221313 1046.135376,1185.984375 1052.540771,1184.047852 
	C1053.374146,1187.620972 1053.656616,1191.266235 1053.658447,1194.911743 
	C1053.684814,1245.140137 1053.604614,1295.368774 1053.699829,1345.597046 
	C1053.743896,1368.866577 1053.589966,1392.154907 1054.446167,1415.400757 
	C1055.971313,1456.809937 1059.499878,1498.032349 1068.787842,1539.272095 
	C1063.999146,1540.711426 1062.844849,1543.950317 1061.994019,1547.183594 
	C1060.225464,1553.903564 1058.874512,1560.735596 1057.030273,1567.432983 
	C1050.862549,1589.831909 1044.619629,1612.210693 1038.274902,1634.560181 
	C1034.018921,1649.551880 1028.477539,1664.271118 1025.479492,1679.499878 
	C1022.778076,1693.221558 1017.891724,1706.171265 1014.414612,1719.582031 
	C1010.921570,1733.054199 1007.139160,1746.451050 1003.570007,1759.903931 
	C999.317444,1775.932617 995.306763,1792.027466 990.882202,1808.008057 
	C989.122131,1814.365234 985.981079,1820.359497 984.435669,1826.752686 
	C981.086792,1840.607056 978.399780,1854.620728 975.341980,1868.547241 
	C974.846985,1870.801636 973.824524,1872.938599 973.067749,1875.137451 
	C970.165161,1883.570557 966.830688,1891.886230 964.481750,1900.471313 
	C961.248108,1912.290039 959.219849,1924.445190 955.831299,1936.213257 
	C952.178223,1948.900391 947.551453,1961.307251 943.349487,1973.836304 
	C910.882935,1946.554321 881.974792,1915.853882 855.540283,1881.992676 
z"/>
<path fill="#0475FF" opacity="1.000000" stroke="none" 
	d="
M1859.082031,1172.599854 
	C1858.706421,1183.271484 1857.858276,1193.642822 1853.579346,1203.763306 
	C1848.822388,1215.014038 1845.961304,1227.113525 1842.813110,1238.986328 
	C1837.968140,1257.259277 1833.884399,1275.736328 1828.915527,1293.973633 
	C1824.036499,1311.880737 1818.205444,1329.527344 1813.246582,1347.414307 
	C1806.941772,1370.156006 1800.777222,1392.946655 1795.158203,1415.864868 
	C1791.271606,1431.716553 1787.225830,1447.384521 1781.231812,1462.671143 
	C1777.273926,1472.765137 1776.485840,1484.065430 1773.767334,1494.694824 
	C1772.048706,1501.415039 1769.115967,1507.817139 1767.225220,1514.502686 
	C1765.163452,1521.791870 1763.692261,1529.247314 1761.932129,1536.622803 
	C1760.776245,1541.465820 1760.345947,1546.675537 1758.217651,1551.053589 
	C1753.509521,1560.739258 1750.874023,1570.623047 1749.212646,1581.372803 
	C1746.789795,1597.051147 1741.551758,1612.288086 1737.630981,1627.742920 
	C1733.718994,1643.162476 1729.942505,1658.616211 1726.130493,1674.060913 
	C1725.573608,1676.317505 1725.351685,1678.673096 1724.632080,1680.870728 
	C1719.884277,1695.371216 1714.968140,1709.817139 1710.285889,1724.338501 
	C1709.173950,1727.786865 1708.788574,1731.464966 1707.988770,1735.019409 
	C1706.531616,1741.496094 1705.459473,1748.103882 1703.416626,1754.393921 
	C1700.443726,1763.547363 1696.296265,1772.330322 1693.527588,1781.535400 
	C1691.636475,1787.822388 1691.800171,1794.712158 1690.063599,1801.064209 
	C1686.469971,1814.210327 1681.484375,1827.007690 1678.430908,1840.261719 
	C1674.705078,1856.433838 1669.592896,1872.115356 1664.720703,1887.927734 
	C1661.017334,1899.946533 1659.260132,1912.551147 1656.162109,1924.774658 
	C1653.796753,1934.107666 1650.381958,1943.173462 1647.979004,1952.498779 
	C1644.171509,1967.273926 1641.056396,1982.228882 1637.179932,1996.984619 
	C1635.090332,2004.938721 1631.577515,2012.518921 1629.484009,2020.472290 
	C1621.620361,2050.347168 1614.068970,2080.304199 1606.437500,2110.239746 
	C1606.112549,2111.514404 1606.152588,2112.882568 1606.009766,2115.013428 
	C1599.518433,2118.075928 1593.182007,2120.951660 1586.535522,2122.473633 
	C1565.033447,2127.397705 1543.417603,2131.824707 1521.076904,2135.667969 
	C1522.124390,2129.185547 1523.972778,2123.488525 1525.740479,2117.766357 
	C1526.425537,2115.549072 1527.828369,2113.063232 1527.358765,2111.062500 
	C1525.213623,2101.923096 1529.682007,2094.171143 1532.056274,2086.019043 
	C1535.106812,2075.544189 1538.710083,2065.230469 1541.802856,2054.767090 
	C1544.239990,2046.521729 1546.217651,2038.141479 1548.489624,2029.845703 
	C1550.229126,2023.493774 1552.250366,2017.216309 1553.880493,2010.837891 
	C1555.106934,2006.039062 1555.494141,2000.998169 1557.001587,1996.304932 
	C1559.308594,1989.121948 1561.124023,1981.866577 1564.788086,1974.973999 
	C1567.930420,1969.062378 1567.594482,1961.404419 1569.549438,1954.739502 
	C1574.864990,1936.616455 1576.012695,1917.276001 1585.371338,1900.320679 
	C1585.977051,1899.223267 1585.796875,1897.712036 1586.083252,1896.415527 
	C1589.012817,1883.149414 1590.754761,1869.462036 1595.237793,1856.741455 
	C1600.000366,1843.227661 1604.232544,1829.839844 1606.880249,1815.690918 
	C1609.909546,1799.501221 1617.653076,1784.437378 1619.308838,1767.723755 
	C1619.888916,1761.868286 1622.343384,1756.194824 1623.978516,1750.448608 
	C1625.425659,1745.362915 1626.080811,1739.824219 1628.582275,1735.315796 
	C1633.156738,1727.070801 1634.907349,1718.618896 1633.784424,1709.407837 
	C1641.478516,1701.619141 1649.233887,1693.889771 1656.856323,1686.031616 
	C1695.882812,1645.799194 1721.836670,1598.234253 1735.801636,1544.103394 
	C1741.807617,1520.822632 1745.503784,1497.130005 1748.268555,1473.200562 
	C1750.862183,1450.752197 1752.176147,1428.320557 1752.319824,1405.778564 
	C1752.796631,1330.929443 1753.208984,1256.079834 1753.672974,1181.230591 
	C1753.689087,1178.636230 1753.992920,1176.043701 1754.230225,1172.420288 
	C1789.128906,1172.420288 1823.644409,1172.420288 1859.082031,1172.599854 
z"/>
<path fill="#2CA7FD" opacity="1.000000" stroke="none" 
	d="
M943.722290,1974.316162 
	C947.551453,1961.307251 952.178223,1948.900391 955.831299,1936.213257 
	C959.219849,1924.445190 961.248108,1912.290039 964.481750,1900.471313 
	C966.830688,1891.886230 970.165161,1883.570557 973.067749,1875.137451 
	C973.824524,1872.938599 974.846985,1870.801636 975.341980,1868.547241 
	C978.399780,1854.620728 981.086792,1840.607056 984.435669,1826.752686 
	C985.981079,1820.359497 989.122131,1814.365234 990.882202,1808.008057 
	C995.306763,1792.027466 999.317444,1775.932617 1003.570007,1759.903931 
	C1007.139160,1746.451050 1010.921570,1733.054199 1014.414612,1719.582031 
	C1017.891724,1706.171265 1022.778076,1693.221558 1025.479492,1679.499878 
	C1028.477539,1664.271118 1034.018921,1649.551880 1038.274902,1634.560181 
	C1044.619629,1612.210693 1050.862549,1589.831909 1057.030273,1567.432983 
	C1058.874512,1560.735596 1060.225464,1553.903564 1061.994019,1547.183594 
	C1062.844849,1543.950317 1063.999146,1540.711426 1068.765137,1540.047363 
	C1074.851929,1556.033813 1079.463257,1572.399780 1085.785522,1588.075806 
	C1098.821533,1620.399292 1117.060791,1649.673706 1140.259888,1675.786865 
	C1145.072876,1681.204346 1149.678589,1686.805908 1153.825562,1693.412964 
	C1149.608154,1703.312378 1145.021973,1711.862061 1142.459473,1720.980469 
	C1135.470825,1745.848877 1129.548828,1771.014771 1122.799438,1795.953369 
	C1116.915283,1817.695312 1110.274170,1839.232056 1104.343628,1860.962036 
	C1097.883301,1884.632812 1091.991333,1908.458252 1085.591919,1932.145996 
	C1081.439575,1947.516968 1076.772461,1962.748291 1072.426880,1978.067871 
	C1067.714844,1994.679321 1063.086060,2011.314697 1058.465332,2027.951782 
	C1056.256592,2035.904663 1054.150391,2043.885986 1051.997681,2051.854492 
	C1037.979736,2043.188721 1023.360474,2035.348145 1010.078247,2025.672485 
	C987.638306,2009.325439 966.044678,1991.816528 943.722290,1974.316162 
z"/>
<path fill="#0B7CFE" opacity="1.000000" stroke="none" 
	d="
M1633.163452,1709.715820 
	C1634.907349,1718.618896 1633.156738,1727.070801 1628.582275,1735.315796 
	C1626.080811,1739.824219 1625.425659,1745.362915 1623.978516,1750.448608 
	C1622.343384,1756.194824 1619.888916,1761.868286 1619.308838,1767.723755 
	C1617.653076,1784.437378 1609.909546,1799.501221 1606.880249,1815.690918 
	C1604.232544,1829.839844 1600.000366,1843.227661 1595.237793,1856.741455 
	C1590.754761,1869.462036 1589.012817,1883.149414 1586.083252,1896.415527 
	C1585.796875,1897.712036 1585.977051,1899.223267 1585.371338,1900.320679 
	C1576.012695,1917.276001 1574.864990,1936.616455 1569.549438,1954.739502 
	C1567.594482,1961.404419 1567.930420,1969.062378 1564.788086,1974.973999 
	C1561.124023,1981.866577 1559.308594,1989.121948 1557.001587,1996.304932 
	C1555.494141,2000.998169 1555.106934,2006.039062 1553.880493,2010.837891 
	C1552.250366,2017.216309 1550.229126,2023.493774 1548.489624,2029.845703 
	C1546.217651,2038.141479 1544.239990,2046.521729 1541.802856,2054.767090 
	C1538.710083,2065.230469 1535.106812,2075.544189 1532.056274,2086.019043 
	C1529.682007,2094.171143 1525.213623,2101.923096 1527.358765,2111.062500 
	C1527.828369,2113.063232 1526.425537,2115.549072 1525.740479,2117.766357 
	C1523.972778,2123.488525 1522.124390,2129.185547 1520.221191,2135.665039 
	C1510.441528,2138.139404 1500.810791,2140.587158 1491.044434,2141.395996 
	C1466.675171,2143.413818 1442.244141,2144.686279 1417.055298,2145.353027 
	C1419.770630,2137.642822 1423.144043,2130.815186 1422.383545,2122.787354 
	C1422.295044,2121.853027 1422.818848,2120.854492 1423.086060,2119.893311 
	C1426.468506,2107.723877 1429.782471,2095.534424 1433.256226,2083.391113 
	C1441.937988,2053.041504 1450.718140,2022.719727 1459.404175,1992.371216 
	C1462.328857,1982.152466 1465.239868,1971.925293 1467.889648,1961.633179 
	C1472.112427,1945.232300 1475.900146,1928.717407 1480.270630,1912.357178 
	C1483.860352,1898.919312 1488.074463,1885.649414 1491.924805,1872.279907 
	C1493.950195,1865.246948 1495.743530,1858.147461 1497.720459,1851.100220 
	C1503.997803,1828.722412 1510.374390,1806.371826 1516.497681,1783.952026 
	C1517.001221,1782.108276 1515.881104,1779.821045 1515.515381,1777.739746 
	C1532.998169,1769.906494 1550.772339,1762.655884 1567.893066,1754.097900 
	C1591.370728,1742.362305 1612.609741,1727.089600 1633.163452,1709.715820 
z"/>
<path fill="#249CFE" opacity="1.000000" stroke="none" 
	d="
M1052.542358,2052.279297 
	C1054.150391,2043.885986 1056.256592,2035.904663 1058.465332,2027.951782 
	C1063.086060,2011.314697 1067.714844,1994.679321 1072.426880,1978.067871 
	C1076.772461,1962.748291 1081.439575,1947.516968 1085.591919,1932.145996 
	C1091.991333,1908.458252 1097.883301,1884.632812 1104.343628,1860.962036 
	C1110.274170,1839.232056 1116.915283,1817.695312 1122.799438,1795.953369 
	C1129.548828,1771.014771 1135.470825,1745.848877 1142.459473,1720.980469 
	C1145.021973,1711.862061 1149.608154,1703.312378 1153.899170,1694.120117 
	C1156.225708,1694.541138 1158.294800,1694.965332 1159.567993,1696.205933 
	C1180.574585,1716.677124 1203.742798,1734.262451 1229.186768,1748.857666 
	C1234.712158,1752.027100 1240.176636,1755.303101 1245.462158,1759.735229 
	C1244.571655,1762.450806 1243.656006,1763.900024 1243.239380,1765.480957 
	C1237.401367,1787.637207 1231.795776,1809.856201 1225.796997,1831.968628 
	C1220.154175,1852.768921 1214.105225,1873.458862 1208.254272,1894.202759 
	C1206.723755,1899.628662 1205.380859,1905.109985 1203.747925,1910.504028 
	C1200.671631,1920.666016 1197.144287,1930.700439 1194.348267,1940.936401 
	C1188.753784,1961.415405 1183.523560,1981.993896 1178.148560,2002.532837 
	C1175.966797,2010.869141 1173.934326,2019.247192 1171.598999,2027.540039 
	C1165.920776,2047.702515 1160.058105,2067.812988 1154.385742,2087.977051 
	C1153.314331,2091.785645 1152.779175,2095.745361 1151.996582,2099.635254 
	C1136.799194,2093.390625 1121.280273,2087.817383 1106.486694,2080.729980 
	C1088.369507,2072.050537 1070.859497,2062.103516 1052.542358,2052.279297 
z"/>
<path fill="#1285FE" opacity="1.000000" stroke="none" 
	d="
M1514.752686,1777.736084 
	C1515.881104,1779.821045 1517.001221,1782.108276 1516.497681,1783.952026 
	C1510.374390,1806.371826 1503.997803,1828.722412 1497.720459,1851.100220 
	C1495.743530,1858.147461 1493.950195,1865.246948 1491.924805,1872.279907 
	C1488.074463,1885.649414 1483.860352,1898.919312 1480.270630,1912.357178 
	C1475.900146,1928.717407 1472.112427,1945.232300 1467.889648,1961.633179 
	C1465.239868,1971.925293 1462.328857,1982.152466 1459.404175,1992.371216 
	C1450.718140,2022.719727 1441.937988,2053.041504 1433.256226,2083.391113 
	C1429.782471,2095.534424 1426.468506,2107.723877 1423.086060,2119.893311 
	C1422.818848,2120.854492 1422.295044,2121.853027 1422.383545,2122.787354 
	C1423.144043,2130.815186 1419.770630,2137.642822 1416.135254,2145.167969 
	C1396.109741,2145.407227 1376.215332,2145.100342 1356.335938,2144.377197 
	C1345.416504,2143.980225 1334.522461,2142.882812 1322.807617,2140.980957 
	C1324.668945,2128.562012 1327.377686,2117.272461 1329.995483,2105.961670 
	C1331.565552,2099.178223 1332.700195,2092.281006 1334.555786,2085.580322 
	C1337.212524,2075.985596 1340.405273,2066.540283 1343.251343,2056.996094 
	C1344.290527,2053.511475 1344.821411,2049.874512 1345.882446,2046.397949 
	C1349.064575,2035.972900 1353.124634,2025.755859 1355.490601,2015.156128 
	C1358.874390,1999.995605 1361.666870,1984.850342 1366.591797,1969.933960 
	C1375.115479,1944.117188 1381.406982,1917.562622 1388.602173,1891.308594 
	C1395.008667,1867.931763 1401.418213,1844.555542 1407.727905,1821.152466 
	C1409.967407,1812.845947 1411.916382,1804.461060 1413.997925,1796.111938 
	C1436.495483,1793.369141 1459.098267,1791.269409 1481.446045,1787.610962 
	C1492.535889,1785.795532 1503.156860,1781.116089 1514.752686,1777.736084 
z"/>
<path fill="#1D94FE" opacity="1.000000" stroke="none" 
	d="
M1152.620117,2100.022461 
	C1152.779175,2095.745361 1153.314331,2091.785645 1154.385742,2087.977051 
	C1160.058105,2067.812988 1165.920776,2047.702515 1171.598999,2027.540039 
	C1173.934326,2019.247192 1175.966797,2010.869141 1178.148560,2002.532837 
	C1183.523560,1981.993896 1188.753784,1961.415405 1194.348267,1940.936401 
	C1197.144287,1930.700439 1200.671631,1920.666016 1203.747925,1910.504028 
	C1205.380859,1905.109985 1206.723755,1899.628662 1208.254272,1894.202759 
	C1214.105225,1873.458862 1220.154175,1852.768921 1225.796997,1831.968628 
	C1231.795776,1809.856201 1237.401367,1787.637207 1243.239380,1765.480957 
	C1243.656006,1763.900024 1244.571655,1762.450806 1245.757935,1760.407715 
	C1248.771606,1760.479614 1251.468384,1760.684448 1253.764282,1761.751831 
	C1273.680054,1771.011108 1294.126953,1778.770386 1315.430542,1784.205444 
	C1319.780518,1785.315063 1324.100830,1786.541138 1329.070557,1788.675781 
	C1328.250732,1794.044800 1326.630859,1798.405396 1325.377197,1802.868774 
	C1323.320557,1810.190674 1321.598755,1817.606323 1319.563843,1824.934692 
	C1314.053955,1844.776245 1308.359009,1864.566895 1302.957886,1884.437744 
	C1301.663940,1889.198486 1301.819336,1894.387085 1300.284546,1899.041626 
	C1296.139282,1911.613525 1291.429077,1923.998901 1286.986084,1936.473633 
	C1286.544556,1937.713135 1286.310425,1939.045654 1286.128784,1940.355591 
	C1283.562988,1958.857544 1278.131104,1976.595947 1272.005249,1994.168091 
	C1270.931152,1997.249512 1270.665771,2000.607788 1269.960815,2003.823975 
	C1268.115967,2012.242432 1267.522217,2021.239868 1264.025879,2028.910767 
	C1260.089844,2037.546509 1258.172729,2046.462402 1255.922119,2055.440430 
	C1253.750488,2064.103271 1251.518311,2072.755127 1249.059570,2081.339600 
	C1247.791992,2085.765137 1245.642944,2089.946533 1244.478516,2094.391602 
	C1242.469116,2102.062988 1240.859131,2109.841797 1239.203003,2117.601562 
	C1238.582153,2120.510498 1238.300293,2123.491455 1237.863770,2126.439697 
	C1226.606445,2123.607666 1215.183594,2121.301514 1204.130249,2117.821289 
	C1187.035400,2112.438965 1170.193237,2106.254150 1152.620117,2100.022461 
z"/>
<path fill="#188DFE" opacity="1.000000" stroke="none" 
	d="
M1238.412598,2126.951904 
	C1238.300293,2123.491455 1238.582153,2120.510498 1239.203003,2117.601562 
	C1240.859131,2109.841797 1242.469116,2102.062988 1244.478516,2094.391602 
	C1245.642944,2089.946533 1247.791992,2085.765137 1249.059570,2081.339600 
	C1251.518311,2072.755127 1253.750488,2064.103271 1255.922119,2055.440430 
	C1258.172729,2046.462402 1260.089844,2037.546509 1264.025879,2028.910767 
	C1267.522217,2021.239868 1268.115967,2012.242432 1269.960815,2003.823975 
	C1270.665771,2000.607788 1270.931152,1997.249512 1272.005249,1994.168091 
	C1278.131104,1976.595947 1283.562988,1958.857544 1286.128784,1940.355591 
	C1286.310425,1939.045654 1286.544556,1937.713135 1286.986084,1936.473633 
	C1291.429077,1923.998901 1296.139282,1911.613525 1300.284546,1899.041626 
	C1301.819336,1894.387085 1301.663940,1889.198486 1302.957886,1884.437744 
	C1308.359009,1864.566895 1314.053955,1844.776245 1319.563843,1824.934692 
	C1321.598755,1817.606323 1323.320557,1810.190674 1325.377197,1802.868774 
	C1326.630859,1798.405396 1328.250732,1794.044800 1329.848633,1788.916870 
	C1348.817749,1790.667969 1367.610596,1793.458740 1386.486572,1795.467651 
	C1394.959229,1796.369263 1403.598389,1795.706543 1413.079956,1795.932861 
	C1411.916382,1804.461060 1409.967407,1812.845947 1407.727905,1821.152466 
	C1401.418213,1844.555542 1395.008667,1867.931763 1388.602173,1891.308594 
	C1381.406982,1917.562622 1375.115479,1944.117188 1366.591797,1969.933960 
	C1361.666870,1984.850342 1358.874390,1999.995605 1355.490601,2015.156128 
	C1353.124634,2025.755859 1349.064575,2035.972900 1345.882446,2046.397949 
	C1344.821411,2049.874512 1344.290527,2053.511475 1343.251343,2056.996094 
	C1340.405273,2066.540283 1337.212524,2075.985596 1334.555786,2085.580322 
	C1332.700195,2092.281006 1331.565552,2099.178223 1329.995483,2105.961670 
	C1327.377686,2117.272461 1324.668945,2128.562012 1321.997559,2140.662354 
	C1310.295898,2140.186035 1298.490356,2139.508301 1286.920044,2137.484619 
	C1270.841309,2134.673096 1254.939209,2130.852539 1238.412598,2126.951904 
z"/>
<path fill="#0677FF" opacity="1.000000" stroke="none" 
	d="
M1928.057861,997.973999 
	C1904.824341,998.053894 1881.545166,998.225525 1858.265747,998.313293 
	C1841.298340,998.377258 1824.330444,998.330566 1807.362793,998.332947 
	C1804.093140,998.333374 1800.823486,998.332886 1796.947632,998.332886 
	C1796.947632,954.356873 1796.947632,911.236145 1796.947632,868.062866 
	C1803.605713,865.861938 1907.597168,865.008606 1928.232422,867.199524 
	C1928.284180,910.113037 1928.336060,953.197571 1928.143311,997.200562 
	C1927.898560,998.119141 1928.012085,998.029846 1928.057861,997.973999 
z"/>
<path fill="#006FFF" opacity="1.000000" stroke="none" 
	d="
M2031.980469,734.338684 
	C2040.959839,734.405334 2048.944336,734.456848 2056.927979,734.567810 
	C2057.534180,734.576172 2058.134521,735.006470 2058.737305,735.241516 
	C2060.679443,742.204163 2061.246094,809.677307 2059.381348,823.041443 
	C2030.695679,823.041443 2001.915649,823.041443 1972.395386,823.041443 
	C1972.395386,793.825134 1972.395386,764.741577 1972.395386,734.338440 
	C1991.939453,734.338440 2011.462402,734.338440 2031.980469,734.338684 
z"/>
</svg>