<?xml version="1.0" encoding="UTF-8"?>
<svg version="1.1" xmlns="http://www.w3.org/2000/svg" width="2008" height="744">
<path d="M0 0 C19.60893618 0.44843721 36.67470555 9.69380664 50.13720703 23.49389648 C59.29518954 33.33866203 65.29328376 44.92598301 71 57 C72.41925781 56.23816406 72.41925781 56.23816406 73.8671875 55.4609375 C81.15405346 51.63467993 88.44113523 48.25032188 96.25 45.625 C96.94464355 45.38700684 97.63928711 45.14901367 98.35498047 44.90380859 C109.76760312 41.22000417 121.21781436 40.62417651 133.125 40.6875 C134.2199881 40.69073273 134.2199881 40.69073273 135.33709717 40.69403076 C146.48850223 40.74681451 157.14378096 41.32895168 168 44 C169.38783691 44.32991943 169.38783691 44.32991943 170.80371094 44.66650391 C181.16472575 47.15414853 191.18020221 49.81566913 201 54 C197.76769162 56.15487225 196.14571581 56.42776684 192.35546875 56.89453125 C191.21456787 57.0426123 190.07366699 57.19069336 188.89819336 57.34326172 C187.67366455 57.49811035 186.44913574 57.65295898 185.1875 57.8125 C152.82949125 62.1909696 121.42609832 70.71593445 94 89 C95.72283203 89.23783203 95.72283203 89.23783203 97.48046875 89.48046875 C121.03403743 92.93180213 139.89422975 102.65504626 154.43310547 121.89868164 C161.46403034 131.56092381 166.81067656 142.26753562 172 153 C171.01 153.33 170.02 153.66 169 154 C167.01171875 152.84765625 167.01171875 152.84765625 164.6875 151.0625 C140.27328493 133.33229193 111.90804617 124.55260349 82 123 C82.4125 123.41507812 82.825 123.83015625 83.25 124.2578125 C103.10208744 145.4392808 108.99575874 175.41542136 109.25 203.5 C109.2593457 204.21212646 109.26869141 204.92425293 109.27832031 205.65795898 C109.25500793 209.32741771 109.0913122 210.8630317 107 214 C106.57332031 212.91847656 106.14664062 211.83695313 105.70703125 210.72265625 C98.33051553 192.42897815 89.79301563 173.90069523 78 158 C77.55301758 157.38898438 77.10603516 156.77796875 76.64550781 156.1484375 C70.35182662 147.55219002 63.84855873 139.16292859 57 131 C53.6022514 136.0966229 52.32133029 142.10806191 50.5625 147.9375 C50.34579651 148.65405762 50.12909302 149.37061523 49.90582275 150.10888672 C32.43490843 208.20011389 21.21564154 268.22376906 16.27783203 328.68310547 C16 331 16 331 15 334 C15.84425537 333.76128174 16.68851074 333.52256348 17.55834961 333.27661133 C28.46974776 330.2713688 39.46534682 327.89844173 50.5625 325.6875 C51.5309787 325.49401978 52.4994574 325.30053955 53.49728394 325.10119629 C99.84129998 315.8969266 146.64557532 310.18276128 193.75 306.75 C194.88919891 306.66682526 196.02839783 306.58365051 197.20211792 306.49795532 C204.79864236 305.95056528 212.39710125 305.45032036 220 305 C221.39032944 304.91727844 221.39032944 304.91727844 222.80874634 304.83288574 C243.57821438 303.65470776 264.3917956 303.7544392 285.1875 303.75 C286.13787895 303.74955814 287.0882579 303.74911629 288.06743622 303.74866104 C319.80558638 303.74094345 351.35497521 304.35987781 383 307 C384.06214722 307.08721313 385.12429443 307.17442627 386.21862793 307.26428223 C447.13435212 312.29447681 507.49167026 320.92448884 567 335 C567.70840027 335.16737671 568.41680054 335.33475342 569.14666748 335.50720215 C632.92899344 350.64989042 701.60250456 372.91789346 753 415 C753.58604004 415.47920898 754.17208008 415.95841797 754.77587891 416.45214844 C756.58670886 417.9391175 758.38927065 419.43532364 760.1875 420.9375 C760.74099121 421.39842041 761.29448242 421.85934082 761.86474609 422.33422852 C764.35094621 424.44409875 766.17624028 426.26436042 768 429 C761.97294894 428.32907233 756.11219468 427.2772376 750.1796875 426.03125 C748.20854838 425.62475821 746.23726873 425.21894739 744.26586914 424.8137207 C743.22753937 424.59978668 742.18920959 424.38585266 741.11941528 424.16543579 C645.53432357 404.56075033 548.23986195 393.78631353 450.89916611 387.93819809 C448.90206928 387.81789554 446.90508737 387.69568982 444.90811157 387.57339478 C434.94205296 386.97066145 424.97353944 386.45915073 415 386 C414.06415195 385.95659737 413.12830391 385.91319473 412.16409683 385.86847687 C373.37776741 384.08841919 334.65328288 383.68086105 295.83586365 383.74286145 C290.56999309 383.75040178 285.30419788 383.74767549 280.03833008 383.73925781 C240.64672583 383.67801192 201.3598112 384.21819485 162 386 C161.13269886 386.03887833 160.26539772 386.07775665 159.37181473 386.11781311 C149.15926426 386.57861112 138.95416458 387.12843517 128.75 387.75 C127.35936955 387.83328005 125.96873424 387.91647887 124.57809448 387.99960327 C34.19378053 393.43369019 -56.19549797 403.192483 -159.62109375 423.37890625 C-160.54129807 423.56955154 -161.46150238 423.76019684 -162.40959167 423.95661926 C-166.72044634 424.85342485 -171.02752231 425.76446862 -175.32983398 426.70141602 C-176.09461563 426.86475937 -176.85939728 427.02810272 -177.64735413 427.19639587 C-179.0587313 427.49798548 -180.46866554 427.80644914 -181.87669373 428.12330627 C-185.2147624 428.83019427 -187.7595236 429.21810925 -191 428 C-144.95475455 383.09295162 -77.87211674 358.93817717 -17 342 C-16.8548999 340.82123291 -16.7097998 339.64246582 -16.56030273 338.42797852 C-7.4731843 265.02288313 6.99252835 193.42796385 33 124 C27.23675144 123.85760504 21.74374103 124.12763361 16.0625 125.1875 C15.33361572 125.322771 14.60473145 125.45804199 13.85375977 125.59741211 C-11.20771518 130.44464917 -33.75495249 140.8297253 -56.04248047 153.05712891 C-58 154 -58 154 -60 154 C-50.60899299 128.83749318 -25.56236406 108.2797672 -2.00439453 96.90820312 C3.85628312 94.2526951 9.92530996 92.10738262 16 90 C-14.79193171 73.94476105 -48.01899814 66.76672028 -82 61 C-79.80198607 58.51412523 -78.06093466 57.45193965 -74.89453125 56.5 C-74.08363037 56.25403076 -73.27272949 56.00806152 -72.43725586 55.75463867 C-71.57108643 55.50560791 -70.70491699 55.25657715 -69.8125 55 C-68.91990479 54.73872314 -68.02730957 54.47744629 -67.10766602 54.20825195 C-33.85044633 44.712538 1.81337879 45.89335355 34 59 C26.72594712 36.38260728 17.35410544 17.58281187 0 1 C0 0.67 0 0.34 0 0 Z " fill="#373785" transform="translate(706,57)"/>
<path d="M0 0 C1.34535828 0.00090637 1.34535828 0.00090637 2.71789551 0.00183105 C68.87288458 0.1221502 133.41145723 15.01898288 193.1875 43.1875 C194.06873535 43.59790527 194.9499707 44.00831055 195.85791016 44.43115234 C222.61771212 56.97399462 247.84885753 73.10871353 271.1875 91.1875 C271.74775879 91.61772461 272.30801758 92.04794922 272.88525391 92.49121094 C279.81205224 97.8142864 286.54426708 103.24384163 292.98046875 109.16015625 C294.91579285 110.93791414 296.88153016 112.66326252 298.875 114.375 C366.75626243 173.80518157 414.88670961 256.26039769 442.1875 383.1875 C438.37688571 381.74256193 434.83090266 380.01158306 431.234375 378.09765625 C430.07099609 377.48374023 428.90761719 376.86982422 427.70898438 376.23730469 C427.09498779 375.91322632 426.48099121 375.58914795 425.84838867 375.25524902 C407.3231047 365.50977097 388.41363578 357.09047975 368.875 349.5625 C367.67302979 349.09021973 366.47105957 348.61793945 365.23266602 348.13134766 C359.04506358 345.76609539 353.04123743 343.84635537 346.546875 342.515625 C328.86972536 338.65381585 328.86972536 338.65381585 324.00439453 332.36621094 C320.44811602 325.87047141 318.17026385 319.00105193 316.02711487 311.94041443 C314.01658026 305.35935793 311.22339154 299.2861166 308.1875 293.125 C307.69193604 292.10414307 307.19637207 291.08328613 306.68579102 290.03149414 C298.90425512 274.24594747 289.46700416 259.45213557 279.1875 245.1875 C278.69749512 244.50671387 278.20749023 243.82592773 277.70263672 243.12451172 C272.04911053 235.31933814 266.25231138 227.83218642 259.63671875 220.8125 C257.70419917 218.74128285 255.84952784 216.64287136 254.00390625 214.49609375 C243.48050927 202.42284879 231.89040427 190.94887629 219.1875 181.1875 C218.13472887 180.31515556 217.0854798 179.43854982 216.0390625 178.55859375 C185.48314703 153.07299782 149.65145714 134.20067111 112.1875 121.1875 C111.36330566 120.90036133 110.53911133 120.61322266 109.68994141 120.31738281 C88.44307775 113.02243563 66.41370744 108.28684913 44.1875 105.1875 C42.96135986 105.00960937 42.96135986 105.00960937 41.71044922 104.828125 C-7.13279186 98.06753633 -65.60092946 102.16613951 -111.47021484 121.29589844 C-113.8125 122.1875 -113.8125 122.1875 -116.8125 122.1875 C-118.65234375 119.984375 -118.65234375 119.984375 -120.75 116.9375 C-127.43412666 107.60827297 -135.28623813 99.11244045 -145.265625 93.2734375 C-145.77609375 92.91507812 -146.2865625 92.55671875 -146.8125 92.1875 C-146.8125 91.5275 -146.8125 90.8675 -146.8125 90.1875 C-121.89206129 81.44664945 -97.03732172 75.61268663 -71.04711914 71.24249268 C-63.29387149 69.93840183 -55.55332676 68.563098 -47.8125 67.1875 C-80.61642705 45.95986557 -112.99319131 33.613436 -151.8125 28.1875 C-150.38649807 25.33549614 -148.7838544 25.28581706 -145.79296875 24.26953125 C-144.72232178 23.90569336 -143.6516748 23.54185547 -142.54858398 23.16699219 C-141.37755127 22.78188477 -140.20651855 22.39677734 -139 22 C-137.78965088 21.60071289 -136.57930176 21.20142578 -135.33227539 20.79003906 C-108.25682261 12.03788367 -80.42388783 6.27128059 -52.1875 2.9375 C-51.48614929 2.85432526 -50.78479858 2.77115051 -50.06219482 2.68545532 C-33.37157406 0.73349804 -16.7962411 -0.02106846 0 0 Z " fill="#FF8B1E" transform="translate(993.8125,51.8125)"/>
<path d="M0 0 C1.35762451 0.46913818 1.35762451 0.46913818 2.74267578 0.94775391 C18.71123358 6.53175136 33.9367599 13.31285977 49 21 C49.81130371 21.41330566 50.62260742 21.82661133 51.45849609 22.25244141 C75.33123941 34.58130498 98.09379224 50.48682204 117.7109375 68.859375 C119.68015663 70.70089732 121.6890248 72.45101877 123.75 74.1875 C127.86002022 77.76143062 131.70514947 81.59568053 135.5625 85.4375 C136.18801758 86.05842529 136.81353516 86.67935059 137.45800781 87.3190918 C141.84008219 91.71555817 145.96720081 96.28248373 150 101 C150.81754761 101.94951538 150.81754761 101.94951538 151.65161133 102.91821289 C163.79059464 117.10600031 174.12152405 132.23777066 184 148.0625 C184.52795166 148.90651367 185.05590332 149.75052734 185.59985352 150.62011719 C189.07217992 156.26077164 192.13270508 162.02990502 195 168 C186.63033812 167.5068865 178.55625692 166.02291774 170.3609314 164.33319092 C155.53018328 161.29404844 140.64463752 158.70648868 125.6875 156.375 C124.74747131 156.22628448 123.80744263 156.07756897 122.83892822 155.92434692 C112.55365947 154.30227566 102.29132803 152.86926224 91.92578125 151.87109375 C90.15072577 151.68835841 88.37574048 151.50493992 86.60083008 151.32080078 C83.30928273 150.98010692 80.02222785 150.70761409 76.72143555 150.47607422 C65.50719272 149.46678413 59.8988008 145.6040038 52.34619141 137.41494751 C49.46405676 134.38560917 46.08730404 131.93783742 42.75 129.4375 C42.03948486 128.90141113 41.32896973 128.36532227 40.59692383 127.81298828 C32.98240704 122.13876939 25.12727377 116.90885194 17 112 C16.25476074 111.54915039 15.50952148 111.09830078 14.74169922 110.63378906 C-29.22411366 84.42357948 -76.8194277 77.14331951 -127 76 C-127 76.66 -127 77.32 -127 78 C-126.09894531 77.94972656 -125.19789063 77.89945312 -124.26953125 77.84765625 C-77.46523995 77.95309771 -23.62803526 110.29206118 9 142 C9 142.33 9 142.66 9 143 C2.06066172 143.10823925 -4.83276245 143.03436452 -11.76022339 142.64826965 C-29.37665343 141.70338486 -47.01740854 141.8126454 -64.65332031 141.81469727 C-68.43559628 141.81477781 -72.21774926 141.80793591 -76 141.79418945 C-110.688218 141.67030638 -145.24658468 142.77836399 -179.8125 145.8125 C-180.78996185 145.89648041 -181.76742371 145.98046082 -182.77450562 146.06698608 C-229.98526473 150.13708204 -276.49833643 156.93325798 -323 166 C-319.24137807 130.27399298 -313.31635174 94.94405873 -305.25 59.9375 C-305.01779755 58.92952362 -304.78559509 57.92154724 -304.5463562 56.88302612 C-301.98501878 45.83342354 -299.27314507 34.86225831 -296 24 C-295.01 24 -294.02 24 -293 24 C-291.38110352 25.79394531 -291.38110352 25.79394531 -289.62890625 28.328125 C-288.97809082 29.26309814 -288.32727539 30.19807129 -287.65673828 31.16137695 C-286.96563965 32.18062256 -286.27454102 33.19986816 -285.5625 34.25 C-284.84819824 35.2918042 -284.13389648 36.3336084 -283.39794922 37.40698242 C-276.85656218 47.03764228 -270.77776061 56.89564689 -265 67 C-264.54898926 67.78777832 -264.09797852 68.57555664 -263.63330078 69.38720703 C-258.0989655 79.10286191 -252.88381867 88.94127413 -248 99 C-234.03448108 68.69185256 -230.74624024 33.856341 -241 2 C-234.31791514 2.47397264 -228.95468889 4.98667064 -222.9375 7.8125 C-221.88981445 8.29952393 -220.84212891 8.78654785 -219.76269531 9.28833008 C-204.60524445 16.43109098 -189.62721962 24.19974102 -176 34 C-174.95714844 34.74765625 -173.91429687 35.4953125 -172.83984375 36.265625 C-170.2158672 38.163115 -167.60275314 40.0735528 -165 42 C-164.23662544 25.74294928 -167.79036751 11.24404904 -173.26977539 -3.9362793 C-174.21660184 -6.61214824 -175.10758707 -9.30556727 -176 -12 C-118.30367971 -24.37759964 -55.56117315 -19.32704728 0 0 Z " fill="#FF8B1E" transform="translate(1064,202)"/>
<path d="M0 0 C-1.7308854 6.54555968 -3.60323434 13.02478981 -5.65014648 19.47827148 C-21.74625078 70.40291099 -32.17280096 123.08372463 -38.4921875 176.08984375 C-38.65976562 177.38019531 -38.82734375 178.67054688 -39 180 C-39.03351563 180.68715088 -39.06703125 181.37430176 -39.1015625 182.08227539 C-40 184 -40 184 -42.92626953 185.36523438 C-44.23985305 185.79132356 -45.55932593 186.19949508 -46.8828125 186.59375 C-47.59614746 186.82163208 -48.30948242 187.04951416 -49.04443359 187.28430176 C-50.59018483 187.77728861 -52.13817365 188.26330124 -53.68804932 188.74316406 C-57.82584661 190.02822646 -61.94351594 191.3748283 -66.0625 192.71875 C-66.90136749 192.99146729 -67.74023499 193.26418457 -68.60452271 193.54516602 C-98.99635876 203.48876605 -127.8311596 216.94869034 -156.00415039 231.99707031 C-158 233 -158 233 -159 233 C-158.57135223 222.25601301 -156.87910174 212.15665235 -154.5625 201.6875 C-154.30231079 200.49519775 -154.30231079 200.49519775 -154.03686523 199.27880859 C-143.55500254 151.52862846 -125.3752771 105.4519335 -99.72070312 63.79638672 C-98.55875551 61.90805698 -97.40662516 60.01365617 -96.26367188 58.11376953 C-84.2961808 38.32060901 -84.2961808 38.32060901 -73.06933594 33.02734375 C-69.51998642 31.26523158 -66.12882754 29.22493838 -62.70141602 27.23876953 C-15.48678391 0 -15.48678391 0 0 0 Z " fill="#FF8B1E" transform="translate(713,202)"/>
<path d="M0 0 C9.57 0 19.14 0 29 0 C32.2175 5.5996875 32.2175 5.5996875 35.5 11.3125 C40.90987879 20.70898185 46.38874276 30.05968859 51.9375 39.375 C58.28088523 50.0278943 64.47878678 60.75543429 70.59741211 71.53857422 C71.21753174 72.63057129 71.83765137 73.72256836 72.4765625 74.84765625 C73.01361816 75.79648682 73.55067383 76.74531738 74.10400391 77.72290039 C76.6826428 82.1799014 79.35075966 86.58459944 82 91 C82.33 64.93 82.66 38.86 83 12 C78.38 12 73.76 12 69 12 C69 8.04 69 4.08 69 0 C82.53 0 96.06 0 110 0 C110 3.96 110 7.92 110 12 C105.38 12 100.76 12 96 12 C96 48.63 96 85.26 96 123 C91.38 123 86.76 123 82 123 C78.68542693 119.31714103 77.10601452 116.95810671 75.0625 112.625 C73.89840736 110.40818578 72.73299763 108.19206279 71.56640625 105.9765625 C70.98262207 104.82317383 70.39883789 103.66978516 69.79736328 102.48144531 C66.90042332 96.87014895 63.69005774 91.4481376 60.5 86 C59.24466119 83.82504496 57.99075395 81.64926303 56.73828125 79.47265625 C53.07173865 73.11763443 49.3845929 66.77479059 45.6875 60.4375 C44.89859375 59.08495117 44.89859375 59.08495117 44.09375 57.70507812 C39.08283189 49.12465414 34.0380469 40.56467972 29 32 C28.67 58.07 28.34 84.14 28 111 C32.29 111 36.58 111 41 111 C41 114.96 41 118.92 41 123 C27.47 123 13.94 123 0 123 C0 119.04 0 115.08 0 111 C4.62 111 9.24 111 14 111 C14 78.33 14 45.66 14 12 C9.38 12 4.76 12 0 12 C0 8.04 0 4.08 0 0 Z " fill="#FFFFFF" transform="translate(229,597)"/>
<path d="M0 0 C9.57 0 19.14 0 29 0 C31.18625 3.795 33.3725 7.59 35.625 11.5 C42.46142282 23.35618431 49.34299161 35.18539922 56.24853516 47.00146484 C58.04636405 50.07937599 59.84188908 53.15862029 61.63671875 56.23828125 C62.24185303 57.27645996 62.8469873 58.31463867 63.47045898 59.38427734 C64.59907537 61.32068515 65.72751475 63.25719614 66.85571289 65.19384766 C71.87959662 73.81038796 76.94274292 82.40266297 82 91 C82.33 64.93 82.66 38.86 83 12 C78.38 12 73.76 12 69 12 C69 8.04 69 4.08 69 0 C82.53 0 96.06 0 110 0 C110 3.96 110 7.92 110 12 C105.38 12 100.76 12 96 12 C96 48.63 96 85.26 96 123 C91.38 123 86.76 123 82 123 C78.6713584 119.27509155 77.06151997 116.86931144 75 112.5 C73.83346727 110.27789138 72.66545769 108.05655753 71.49609375 105.8359375 C70.91843262 104.69479492 70.34077148 103.55365234 69.74560547 102.37792969 C67.05523781 97.17178607 64.05633083 92.16057634 61.0625 87.125 C59.90013434 85.13800958 58.74000226 83.14971097 57.58203125 81.16015625 C56.9988916 80.15871582 56.41575195 79.15727539 55.81494141 78.12548828 C52.02562369 71.59995084 48.26040463 65.06044135 44.50024414 58.51806641 C39.39234053 49.64232003 34.19312044 40.82830474 29 32 C28.67 58.07 28.34 84.14 28 111 C32.29 111 36.58 111 41 111 C41 114.96 41 118.92 41 123 C27.47 123 13.94 123 0 123 C0 119.04 0 115.08 0 111 C4.62 111 9.24 111 14 111 C14 78.33 14 45.66 14 12 C9.38 12 4.76 12 0 12 C0 8.04 0 4.08 0 0 Z " fill="#FFFFFF" transform="translate(1749,597)"/>
<path d="M0 0 C7.47068136 -0.07461498 14.94114181 -0.12882146 22.41210938 -0.16479492 C24.94925723 -0.17980477 27.48637948 -0.20021897 30.0234375 -0.22631836 C33.68756462 -0.26304605 37.35134623 -0.27980508 41.015625 -0.29296875 C42.13487366 -0.30845261 43.25412231 -0.32393646 44.4072876 -0.33988953 C55.69003017 -0.34225627 66.28881641 1.35986358 75 9 C81.40972514 15.97528912 82.41186446 23.25978024 82.24609375 32.5234375 C81.67065218 40.65269139 78.99221498 46.4444037 73 52 C68.74193548 55 68.74193548 55 66 55 C66 55.66 66 56.32 66 57 C66.66 57.04125 67.32 57.0825 68 57.125 C75.19708372 59.22414942 79.98146148 64.47249154 83.8125 70.71875 C88.21652961 79.17912267 88.1733358 89.62960542 85.80859375 98.74609375 C82.78094149 107.18549159 77.7887612 113.52889434 70 118 C59.54278587 122.5190596 49.50823181 123.15271681 38.28125 123.09765625 C36.633526 123.09553383 36.633526 123.09553383 34.95251465 123.09336853 C31.46831457 123.08780257 27.98418042 123.07525639 24.5 123.0625 C22.1276051 123.0574806 19.75520918 123.05291846 17.3828125 123.04882812 C11.58851654 123.03784429 5.79426942 123.02060326 0 123 C0 119.04 0 115.08 0 111 C4.29 111 8.58 111 13 111 C13 78.33 13 45.66 13 12 C8.71 12 4.42 12 0 12 C0 8.04 0 4.08 0 0 Z M28 12 C28 25.2 28 38.4 28 52 C46.17771868 52.75563965 46.17771868 52.75563965 62 46 C66.463443 40.1975241 67.74225204 34.2065925 67 27 C65.3238501 21.79511346 63.20304088 18.50253407 59 15 C49.58718248 10.17291409 38.01046899 12 28 12 Z M28 64 C28 79.51 28 95.02 28 111 C47.24738894 111.85740307 47.24738894 111.85740307 65 105 C71.11781006 98.43864871 71.35918469 92.24526156 71.27734375 83.48828125 C70.78612085 77.30994255 68.64677757 73.23545043 64.0625 69.125 C53.17796021 61.57246219 41.20850118 64 28 64 Z " fill="#FFFFFF" transform="translate(1003,597)"/>
<path d="M0 0 C7.47068136 -0.07461498 14.94114181 -0.12882146 22.41210938 -0.16479492 C24.94925723 -0.17980477 27.48637948 -0.20021897 30.0234375 -0.22631836 C33.68756462 -0.26304605 37.35134623 -0.27980508 41.015625 -0.29296875 C42.13487366 -0.30845261 43.25412231 -0.32393646 44.4072876 -0.33988953 C55.5242389 -0.34222149 66.53166865 1.23457362 75 9 C82.13449985 17.66977197 82.65787386 24.93797291 82 36 C80.8571953 42.62439333 77.90957265 47.44816003 73 52 C68.74193548 55 68.74193548 55 66 55 C66 55.66 66 56.32 66 57 C66.66 57.04125 67.32 57.0825 68 57.125 C74.20829447 58.93575255 79.4776131 63.65119026 83 69 C87.84647825 79.05195489 88.70470377 89.98793976 85.03515625 100.62109375 C81.27383268 109.26504112 75.85993174 115.53598558 67.1015625 119.21875 C57.44248318 122.62497444 48.42952598 123.1474265 38.28125 123.09765625 C36.633526 123.09553383 36.633526 123.09553383 34.95251465 123.09336853 C31.46831457 123.08780257 27.98418042 123.07525639 24.5 123.0625 C22.1276051 123.0574806 19.75520918 123.05291846 17.3828125 123.04882812 C11.58851654 123.03784429 5.79426942 123.02060326 0 123 C0 119.04 0 115.08 0 111 C4.62 111 9.24 111 14 111 C14 78.33 14 45.66 14 12 C9.38 12 4.76 12 0 12 C0 8.04 0 4.08 0 0 Z M28 12 C28 25.2 28 38.4 28 52 C46.17771868 52.75563965 46.17771868 52.75563965 62 46 C66.49002837 40.0405078 67.62326622 34.25575957 67 27 C65.92264691 21.45509099 63.82795257 18.22334412 59.20703125 15.0078125 C52.24359378 11.82804813 45.51002445 11.74139912 38 11.875 C34.7 11.91625 31.4 11.9575 28 12 Z M28 64 C28 79.51 28 95.02 28 111 C47.24357225 111.86137556 47.24357225 111.86137556 65 105 C70.04731861 99.47318612 71.19628353 94.59365847 71.25 87.1875 C71.270625 86.48818359 71.29125 85.78886719 71.3125 85.06835938 C71.35501629 79.38712051 70.17469908 75.41175159 66.3515625 71.171875 C54.65488848 61.53931992 43.8800149 64 28 64 Z " fill="#FFFFFF" transform="translate(1539,597)"/>
<path d="M0 0 C7.18584979 -0.07464525 14.37146947 -0.12883542 21.55761719 -0.16479492 C23.9977614 -0.17979978 26.43787902 -0.20021015 28.87792969 -0.22631836 C32.40306192 -0.26306851 35.92783488 -0.27981002 39.453125 -0.29296875 C41.06637665 -0.31619453 41.06637665 -0.31619453 42.71221924 -0.33988953 C53.85001647 -0.3423158 65.28649595 1.55560311 74 9 C81.59938176 18.7971663 82.14041276 28.83910187 80.64453125 40.85546875 C78.73378315 48.92164698 73.29840934 55.31663627 66.328125 59.66796875 C63.91570485 60.88488483 61.49497501 61.96581347 59 63 C57.66168859 63.65661616 56.32658795 64.32000984 55 65 C55.46148438 65.36867188 55.92296875 65.73734375 56.3984375 66.1171875 C63.47535925 72.41089261 67.32110375 80.2669288 71.67382812 88.51855469 C73.03544106 91.06631498 74.43924759 93.58599082 75.859375 96.1015625 C76.55377686 97.33253662 76.55377686 97.33253662 77.26220703 98.58837891 C78.15730337 100.17235626 79.05406215 101.75539556 79.95263672 103.33740234 C83 108.77745554 83 108.77745554 83 111 C86.96 111 90.92 111 95 111 C95 114.96 95 118.92 95 123 C87.41 123 79.82 123 72 123 C69.89625 118.978125 69.89625 118.978125 67.75 114.875 C63.80506914 107.37757982 59.83232878 99.89503722 55.8125 92.4375 C55.33844727 91.54724121 54.86439453 90.65698242 54.37597656 89.73974609 C47.99024475 77.23786371 47.99024475 77.23786371 38 68 C34.37 67.34 30.74 66.68 27 66 C27 80.85 27 95.7 27 111 C31.29 111 35.58 111 40 111 C40 114.96 40 118.92 40 123 C26.47 123 12.94 123 -1 123 C-1 119.04 -1 115.08 -1 111 C3.29 111 7.58 111 12 111 C12 78.33 12 45.66 12 12 C8.04 12 4.08 12 0 12 C0 8.04 0 4.08 0 0 Z M27 12 C27 25.86 27 39.72 27 54 C45.76984852 54.96420652 45.76984852 54.96420652 61.62890625 46.796875 C65.83480732 41.2848679 66.63985886 34.71851804 66 28 C64.8819236 22.98729082 63.13978603 19.11491365 58.81640625 16.03125 C48.68264852 10.27789077 38.97215128 12 27 12 Z " fill="#FFFFFF" transform="translate(1106,597)"/>
<path d="M0 0 C7.39742219 -0.09984062 14.79444098 -0.17192389 22.19238281 -0.21972656 C24.70221806 -0.23968165 27.2120078 -0.26685553 29.72167969 -0.30175781 C69.48085979 -0.84032838 69.48085979 -0.84032838 84.6875 12.9375 C96.43006576 25.46983124 99.58491146 41.80082414 99.375 58.4375 C99.36339844 59.62255127 99.35179687 60.80760254 99.33984375 62.02856445 C99.02454656 78.88189474 95.12735937 94.715787 83.5 107.5 C79.46370009 111.15982545 75.17014352 113.9063392 70.375 116.4375 C69.78525391 116.75589844 69.19550781 117.07429687 68.58789062 117.40234375 C54.15765592 124.36969953 37.57081207 123.38001626 22 123.1875 C19.85678032 123.17241376 17.71355028 123.15873238 15.5703125 123.14648438 C10.37994678 123.11381914 5.19009163 123.06225811 0 123 C0 119.04 0 115.08 0 111 C4.62 111 9.24 111 14 111 C14 78.33 14 45.66 14 12 C9.38 12 4.76 12 0 12 C0 8.04 0 4.08 0 0 Z M29 12 C29 44.67 29 77.34 29 111 C44.92655003 111 58.7462817 110.42904087 71.48046875 99.9609375 C82.79362763 88.28694616 84.39416781 72.52526943 84.37084961 57.05981445 C84.09256141 43.97561161 81.56858208 32.05981216 72.375 22.26953125 C60.25215612 10.90436512 44.79939123 12 29 12 Z " fill="#FFFFFF" transform="translate(1871,597)"/>
<path d="M0 0 C7.25500608 -0.09986772 14.50960034 -0.17193618 21.76513672 -0.21972656 C24.22647077 -0.23967724 26.68775845 -0.26684764 29.14892578 -0.30175781 C48.4830365 -0.56886865 65.71185179 -0.1193174 82.1875 11.1875 C96.43683054 25.43683054 98.29552759 42.63094988 98.31689453 61.82202148 C98.15101602 78.24706599 94.86177159 94.78455962 83.08203125 107.12890625 C69.10233845 119.69226995 52.70335132 123.19796894 34.375 123.09765625 C32.89374634 123.09553383 32.89374634 123.09553383 31.38256836 123.09336853 C28.25501364 123.08780927 25.12753277 123.07526446 22 123.0625 C19.86849062 123.05747973 17.73698012 123.05291775 15.60546875 123.04882812 C10.40361775 123.03785321 5.20182136 123.02061697 0 123 C0 119.04 0 115.08 0 111 C4.29 111 8.58 111 13 111 C13 78.33 13 45.66 13 12 C8.71 12 4.42 12 0 12 C0 8.04 0 4.08 0 0 Z M28 12 C28 44.67 28 77.34 28 111 C44.35612007 111 58.51309896 110.40452696 71 99 C81.00301003 88.28083914 83.38983962 74.40987534 83.3125 60.25 C83.30758545 59.19031006 83.3026709 58.13062012 83.29760742 57.03881836 C83.1009122 43.8864644 80.91095477 32.32357637 71.875 22.25 C59.73421879 10.92385995 43.56837588 12 28 12 Z " fill="#FFFFFF" transform="translate(1424,597)"/>
<path d="M0 0 C13.86 0 27.72 0 42 0 C42 3.96 42 7.92 42 12 C37.38 12 32.76 12 28 12 C28.06310275 21.86703953 28.13866909 31.73377303 28.23571491 41.60053825 C28.28029672 46.18289276 28.31957918 50.76516086 28.34643555 55.34765625 C28.37259081 59.77635628 28.41307813 64.20472156 28.46318626 68.63321304 C28.47977278 70.31630388 28.49133791 71.99945251 28.49761391 73.68261337 C28.52802323 88.63626891 28.52802323 88.63626891 34.0625 102.3125 C41.20526203 108.84736739 49.27575016 111.33105714 58.86328125 111.1484375 C67.81962532 110.52624175 74.2730321 107.47850337 80.8125 101.375 C87.47398585 92.47061889 86.47114039 80.07535218 86.51171875 69.51953125 C86.52859656 67.85372115 86.54675088 66.18792354 86.56611633 64.5221405 C86.61328621 60.17397977 86.64330779 55.8258697 86.66955566 51.47753906 C86.69952933 47.02593991 86.74600118 42.57451485 86.79101562 38.12304688 C86.87667247 29.41543646 86.94265528 20.70784293 87 12 C82.38 12 77.76 12 73 12 C73 8.04 73 4.08 73 0 C86.53 0 100.06 0 114 0 C114 3.96 114 7.92 114 12 C109.38 12 104.76 12 100 12 C100.00999275 13.47005997 100.00999275 13.47005997 100.02018738 14.96981812 C100.08119009 24.23783805 100.12606425 33.50581686 100.15543652 42.77399254 C100.1710451 47.53805328 100.19219487 52.30195101 100.22631836 57.06591797 C100.25908414 61.66951713 100.27688911 66.27296019 100.28463173 70.87666702 C100.29014448 72.62681152 100.30090904 74.37694816 100.31719017 76.1270256 C100.45639024 91.719983 98.55755273 102.94835634 87.75 114.75 C77.67890749 124.31088298 65.2126988 125.47511166 52.02734375 125.18359375 C40.05321622 124.73990341 30.20664935 120.33016547 21.9765625 111.50390625 C11.97907218 98.83910131 12.69710462 82.22553386 12.8046875 66.8828125 C12.8084291 65.28856587 12.81127063 63.69431691 12.81326294 62.10006714 C12.8208093 57.95405449 12.84037757 53.80818751 12.8626709 49.66223145 C12.88332607 45.41155974 12.89230622 41.16086394 12.90234375 36.91015625 C12.92363436 28.60669734 12.95874016 20.30338371 13 12 C8.71 12 4.42 12 0 12 C0 8.04 0 4.08 0 0 Z " fill="#FFFFFF" transform="translate(105,597)"/>
<path d="M0 0 C26.73 0 53.46 0 81 0 C81 9.24 81 18.48 81 28 C76.71 28 72.42 28 68 28 C68 22.72 68 17.44 68 12 C55.13 12 42.26 12 29 12 C29 25.86 29 39.72 29 54 C35.93 54 42.86 54 50 54 C50 50.37 50 46.74 50 43 C53.96 43 57.92 43 62 43 C62 55.21 62 67.42 62 80 C58.04 80 54.08 80 50 80 C50 75.38 50 70.76 50 66 C43.07 66 36.14 66 29 66 C29 80.85 29 95.7 29 111 C42.53 111 56.06 111 70 111 C70 105.72 70 100.44 70 95 C74.29 95 78.58 95 83 95 C83 104.24 83 113.48 83 123 C55.61 123 28.22 123 0 123 C0 119.04 0 115.08 0 111 C4.62 111 9.24 111 14 111 C14 78.33 14 45.66 14 12 C9.38 12 4.76 12 0 12 C0 8.04 0 4.08 0 0 Z " fill="#FFFFFF" transform="translate(765,597)"/>
<path d="M0 0 C0.92490234 -0.01998047 1.84980469 -0.03996094 2.80273438 -0.06054688 C13.22221203 -0.05324521 21.82474403 3.72351963 29.5625 10.6875 C42.97370918 25.4398301 46.619383 42.83455417 46.4375 62.4375 C46.44910156 63.68789063 46.46070313 64.93828125 46.47265625 66.2265625 C46.41412554 85.07344985 41.28285128 102.69935455 28.3125 116.6875 C19.29690784 125.32457493 8.33996945 127.832262 -3.79345703 127.80834961 C-13.99799577 127.52442822 -22.33784325 124.22762809 -29.9375 117.4375 C-30.82695313 116.72013672 -30.82695313 116.72013672 -31.734375 115.98828125 C-42.95676299 106.13144932 -47.72341648 88.26700035 -48.84765625 73.81640625 C-49.65188629 52.52179358 -48.04462777 31.0291128 -33.6875 14.25 C-24.02816151 3.95097022 -14.00910229 -0.10693971 0 0 Z M-22.2734375 21.3515625 C-31.93646018 33.46436558 -33.33131023 47.0801532 -33.3125 62.0625 C-33.31262085 62.72469543 -33.3127417 63.38689087 -33.31286621 64.06915283 C-33.27921374 77.01478706 -32.34848801 90.32101798 -24.9375 101.4375 C-24.53015625 102.04851562 -24.1228125 102.65953125 -23.703125 103.2890625 C-19.12251495 109.33649712 -12.34131061 112.93838132 -4.9375 114.4375 C2.93393472 115.06721478 10.17468242 113.37062501 16.3125 108.3125 C22.76430255 102.1083424 26.92280996 95.10962121 29.0625 86.4375 C29.26746094 85.64859375 29.47242188 84.8596875 29.68359375 84.046875 C33.57286934 65.70022326 33.42320315 41.62609866 23.0625 25.4375 C18.59208237 18.85887406 12.91164011 14.99279258 5.0625 13.4375 C-5.12350281 12.52643523 -14.58206671 14.17051963 -22.2734375 21.3515625 Z " fill="#FFFFFF" transform="translate(1258.9375,594.5625)"/>
<path d="M0 0 C4.95 0 9.9 0 15 0 C22.56877422 22.03258708 30.06473291 44.0884854 37.4375 66.1875 C37.92947876 67.65968994 37.92947876 67.65968994 38.43139648 69.16162109 C43.07710206 83.06959286 47.58786871 97.01619124 52 111 C57.445 111.495 57.445 111.495 63 112 C63 115.96 63 119.92 63 124 C50.46 124 37.92 124 25 124 C25 120.04 25 116.08 25 112 C28.63 112 32.26 112 36 112 C35.54560547 110.66038208 35.54560547 110.66038208 35.08203125 109.29370117 C33.96024591 105.97947269 32.84252646 102.66393075 31.72753906 99.34741211 C31.24413754 97.91229357 30.75912183 96.47771771 30.27246094 95.04370117 C29.57321879 92.98236386 28.87980523 90.91914458 28.1875 88.85546875 C27.76855469 87.61434326 27.34960938 86.37321777 26.91796875 85.09448242 C26 82 26 82 26 79 C13.46 79 0.92 79 -12 79 C-12.33 81.31 -12.66 83.62 -13 86 C-13.56668954 88.06491684 -14.18319809 90.11678144 -14.84765625 92.15234375 C-15.20537109 93.25771484 -15.56308594 94.36308594 -15.93164062 95.50195312 C-16.30482422 96.63568359 -16.67800781 97.76941406 -17.0625 98.9375 C-17.43955078 100.09830078 -17.81660156 101.25910156 -18.20507812 102.45507812 C-19.13161238 105.30505057 -20.06511575 108.1527557 -21 111 C-17.37 111.33 -13.74 111.66 -10 112 C-10 115.96 -10 119.92 -10 124 C-22.21 124 -34.42 124 -47 124 C-47 120.04 -47 116.08 -47 112 C-41.555 111.505 -41.555 111.505 -36 111 C-26.20926766 81.20732112 -16.48072627 51.39801045 -6.953125 21.52001953 C-6.63303467 20.51625778 -6.31294434 19.51249603 -5.9831543 18.47831726 C-5.39035634 16.61846476 -4.79803352 14.75846072 -4.20629883 12.89826965 C-3.81220825 11.66073189 -3.81220825 11.66073189 -3.41015625 10.39819336 C-3.18465088 9.68916367 -2.95914551 8.98013397 -2.72680664 8.24961853 C-1.83641945 5.493684 -0.91585831 2.74757494 0 0 Z M6 22 C4.14308448 27.78234679 2.29181969 33.56646014 0.44580078 39.35229492 C-0.18317614 41.32089201 -0.81370266 43.28899468 -1.44580078 45.2565918 C-2.35335237 48.08253932 -3.25534216 50.91020978 -4.15625 53.73828125 C-4.44060913 54.61962234 -4.72496826 55.50096344 -5.01794434 56.40901184 C-5.27821411 57.22963608 -5.53848389 58.05026031 -5.80664062 58.89575195 C-6.03758423 59.61745071 -6.26852783 60.33914948 -6.50646973 61.0827179 C-7.12464248 63.15425117 -7.12464248 63.15425117 -7 66 C2.24 66 11.48 66 21 66 C19.68646936 60.0891121 18.31778008 54.44805 16.46875 48.71875 C16.23216675 47.97919067 15.9955835 47.23963135 15.75183105 46.47766113 C15.25644001 44.93429292 14.75890421 43.39161156 14.25927734 41.84960938 C13.49370582 39.48052246 12.74079134 37.10763848 11.98828125 34.734375 C11.50336564 33.22892118 11.01771557 31.72370369 10.53125 30.21875 C10.30723511 29.50843628 10.08322021 28.79812256 9.85241699 28.06628418 C9.29224228 26.35766151 8.65299362 24.67534667 8 23 C7.34 22.67 6.68 22.34 6 22 Z " fill="#FFFFFF" transform="translate(1681,596)"/>
<path d="M0 0 C4.95 0 9.9 0 15 0 C19.70086488 14.01001331 24.39537035 28.02213993 29.08145142 42.03710556 C31.2574219 48.54438873 33.43563591 55.05090472 35.61914062 61.55566406 C37.7253688 67.83023399 39.82533299 74.10687707 41.92144775 80.38483429 C42.723162 82.78257237 43.52699218 85.17960401 44.33294678 87.5759201 C45.45930415 90.9260602 46.57818911 94.27860742 47.6953125 97.63183594 C48.03193909 98.62733459 48.36856567 99.62283325 48.71539307 100.64849854 C49.01830261 101.56272583 49.32121216 102.47695313 49.63330078 103.41888428 C50.03151535 104.60799723 50.03151535 104.60799723 50.43777466 105.82113266 C51 108 51 108 51 112 C54.63 112 58.26 112 62 112 C62 115.96 62 119.92 62 124 C49.79 124 37.58 124 25 124 C25 120.04 25 116.08 25 112 C28.63 112 32.26 112 36 112 C35.69707031 111.14245117 35.39414062 110.28490234 35.08203125 109.40136719 C33.95888039 106.21248269 32.84134559 103.02174419 31.72753906 99.82958984 C31.2447446 98.44957533 30.75973799 97.07033264 30.27246094 95.69189453 C29.571609 93.70805445 28.8788134 91.72155599 28.1875 89.734375 C27.76855469 88.54038086 27.34960938 87.34638672 26.91796875 86.11621094 C26 83 26 83 26 79 C13.46 79 0.92 79 -12 79 C-12.66 81.97 -13.32 84.94 -14 88 C-14.61237866 90.05406545 -15.25753203 92.09884454 -15.9453125 94.12890625 C-16.29980469 95.18271484 -16.65429688 96.23652344 -17.01953125 97.32226562 C-17.38433594 98.39154297 -17.74914062 99.46082031 -18.125 100.5625 C-18.49753906 101.66658203 -18.87007813 102.77066406 -19.25390625 103.90820312 C-20.16514308 106.60686605 -21.08199644 109.3036314 -22 112 C-18.04 112 -14.08 112 -10 112 C-10 115.96 -10 119.92 -10 124 C-22.21 124 -34.42 124 -47 124 C-47 120.04 -47 116.08 -47 112 C-43.37 112 -39.74 112 -36 112 C-35.59257568 110.46005371 -35.18515137 108.92010742 -34.76538086 107.33349609 C-32.957591 100.71138062 -30.87409387 94.19173347 -28.75390625 87.6640625 C-28.3418457 86.38924002 -27.93000632 85.11434603 -27.51837158 83.83938599 C-26.42712578 80.46159548 -25.33282202 77.08480357 -24.23779678 73.70823669 C-23.10634802 70.21780753 -21.97752065 66.72653073 -20.84838867 63.23535156 C-19.05997689 57.70685525 -17.26986192 52.17891331 -15.47851562 46.65136719 C-13.63228283 40.95423137 -11.78968547 35.25593156 -9.95021057 29.55661011 C-8.82488786 26.07003146 -7.69827377 22.58387123 -6.57125854 19.09783936 C-6.067832 17.54007812 -5.56483704 15.98217733 -5.06228638 14.4241333 C-4.38290123 12.31871401 -3.70152684 10.21394989 -3.01953125 8.109375 C-2.46422729 6.39186035 -2.46422729 6.39186035 -1.89770508 4.63964844 C-1 2 -1 2 0 0 Z M6 21 C4.00417471 27.24732509 2.01057597 33.49535742 0.01855469 39.74389648 C-0.6599635 41.87134049 -1.33899921 43.99861952 -2.01855469 46.12573242 C-2.99288513 49.17584121 -3.96537824 52.22653041 -4.9375 55.27734375 C-5.39684937 56.71327126 -5.39684937 56.71327126 -5.86547852 58.1782074 C-6.14576904 59.05904495 -6.42605957 59.93988251 -6.71484375 60.84741211 C-6.96355225 61.62684677 -7.21226074 62.40628143 -7.46850586 63.20933533 C-8.04742407 64.84846424 -8.04742407 64.84846424 -8 66 C1.57 66 11.14 66 21 66 C19.20729042 59.42673153 17.4178716 52.94817931 15.30078125 46.48828125 C15.0608696 45.74918015 14.82095795 45.01007904 14.57377625 44.24858093 C13.82243399 41.93575946 13.06754522 39.62411489 12.3125 37.3125 C11.79598632 35.72468666 11.27970853 34.13679656 10.76367188 32.54882812 C9.51182944 28.6983294 8.25680972 24.84888011 7 21 C6.67 21 6.34 21 6 21 Z " fill="#FFFFFF" transform="translate(521,596)"/>
<path d="M0 0 C1.93166016 0.01740234 1.93166016 0.01740234 3.90234375 0.03515625 C5.19269531 0.04417969 6.48304687 0.05320312 7.8125 0.0625 C8.81152344 0.07410156 9.81054688 0.08570313 10.83984375 0.09765625 C14.05214169 7.80430417 16.77682707 15.63138344 19.40234375 23.5546875 C19.83504052 24.8535518 20.26797374 26.15233736 20.7011261 27.4510498 C21.84864641 30.89454633 22.99221873 34.33934065 24.13467789 37.7845192 C24.8415302 39.91523986 25.54941791 42.04561369 26.25765991 44.1758728 C31.93077633 61.24024768 37.5854312 78.31079523 43.15234375 95.41015625 C43.40250244 96.17582916 43.65266113 96.94150208 43.91040039 97.7303772 C44.59457448 99.82702216 45.27469387 101.92492834 45.953125 104.0234375 C46.32219971 105.16208252 46.69127441 106.30072754 47.0715332 107.47387695 C47.83984375 110.09765625 47.83984375 110.09765625 47.83984375 112.09765625 C51.46984375 112.09765625 55.09984375 112.09765625 58.83984375 112.09765625 C58.83984375 116.05765625 58.83984375 120.01765625 58.83984375 124.09765625 C46.62984375 124.09765625 34.41984375 124.09765625 21.83984375 124.09765625 C21.83984375 120.13765625 21.83984375 116.17765625 21.83984375 112.09765625 C26.78984375 111.60265625 26.78984375 111.60265625 31.83984375 111.09765625 C31.38544922 109.75018311 31.38544922 109.75018311 30.921875 108.37548828 C29.80130826 105.04783606 28.68343248 101.71930529 27.56738281 98.39013672 C27.08343684 96.94836748 26.59841536 95.50695879 26.11230469 94.06591797 C25.41449663 91.99670346 24.72054377 89.92623082 24.02734375 87.85546875 C23.60839844 86.60910645 23.18945312 85.36274414 22.7578125 84.07861328 C21.83984375 81.09765625 21.83984375 81.09765625 21.83984375 79.09765625 C9.62984375 79.42765625 -2.58015625 79.75765625 -15.16015625 80.09765625 C-18.46015625 90.65765625 -21.76015625 101.21765625 -25.16015625 112.09765625 C-21.53015625 112.09765625 -17.90015625 112.09765625 -14.16015625 112.09765625 C-14.16015625 116.05765625 -14.16015625 120.01765625 -14.16015625 124.09765625 C-26.37015625 124.09765625 -38.58015625 124.09765625 -51.16015625 124.09765625 C-51.16015625 120.13765625 -51.16015625 116.17765625 -51.16015625 112.09765625 C-47.20015625 112.09765625 -43.24015625 112.09765625 -39.16015625 112.09765625 C-38.91499268 110.88150635 -38.6698291 109.66535645 -38.41723633 108.41235352 C-37.02567835 102.16876754 -35.02943771 96.13915844 -33.046875 90.0625 C-32.63600666 88.79310429 -32.22550317 87.52359043 -31.81533813 86.25396729 C-30.72280801 82.87566898 -29.62524772 79.49902602 -28.52652359 76.12273788 C-27.39091142 72.63062247 -26.25952776 69.13713756 -25.12768555 65.64379883 C-23.32155306 60.07100255 -21.51266342 54.49910822 -19.70214844 48.92773438 C-17.45214838 42.00303649 -15.21438778 35.07443417 -12.98046875 28.14453125 C-12.08809446 25.38082242 -11.19528751 22.61725402 -10.30215454 19.85379028 C-9.75063981 18.14596336 -9.1999961 16.43785489 -8.65023804 14.72946167 C-7.90250799 12.40724246 -7.15102333 10.08627422 -6.3984375 7.765625 C-6.07487778 6.75619843 -6.07487778 6.75619843 -5.74478149 5.72637939 C-3.9191419 0.12111069 -3.9191419 0.12111069 0 0 Z M1.83984375 22.09765625 C-0.01550192 28.04125589 -1.86646829 33.9862062 -3.71435547 39.93212891 C-4.34387383 41.95588257 -4.97440456 43.9793216 -5.60595703 46.00244141 C-6.51208804 48.90575912 -7.41460568 51.81017849 -8.31640625 54.71484375 C-8.60076538 55.62321991 -8.88512451 56.53159607 -9.17810059 57.46749878 C-9.43837036 58.3082193 -9.69864014 59.14893982 -9.96679688 60.01513672 C-10.19774048 60.75682098 -10.42868408 61.49850525 -10.66662598 62.26266479 C-11.24673133 64.10285019 -11.24673133 64.10285019 -11.16015625 66.09765625 C-1.59015625 66.09765625 7.97984375 66.09765625 17.83984375 66.09765625 C16.00695985 60.31349274 14.17394196 54.52937206 12.34057617 48.74536133 C11.71679828 46.77728771 11.09309993 44.80918889 10.46948242 42.84106445 C9.57361373 40.01376842 8.67745999 37.18656287 7.78125 34.359375 C7.50205215 33.47803391 7.22285431 32.59669281 6.93519592 31.68864441 C6.67500168 30.86802017 6.41480743 30.04739594 6.14672852 29.2019043 C5.91800552 28.48020554 5.68928253 27.75850677 5.45362854 27.01493835 C4.92765979 25.37196759 4.38537066 23.73423697 3.83984375 22.09765625 C3.17984375 22.09765625 2.51984375 22.09765625 1.83984375 22.09765625 Z " fill="#FFFFFF" transform="translate(1359.16015625,595.90234375)"/>
<path d="M0 0 C1.59690674 0.00519653 1.59690674 0.00519653 3.22607422 0.01049805 C13.45403542 0.15227022 21.0217507 1.69837535 30.25 6.3125 C30.25 14.8925 30.25 23.4725 30.25 32.3125 C25.96 32.3125 21.67 32.3125 17.25 32.3125 C16.92 27.0325 16.59 21.7525 16.25 16.3125 C5.13280665 13.13615904 -5.95029779 11.64582521 -16.625 17.0625 C-20.89670125 20.1381249 -23.09415154 23.34495462 -24.75 28.3125 C-25.28324981 34.60484775 -24.67193543 39.22389317 -20.75 44.3125 C-14.11713642 49.28274286 -6.40538399 52.30086416 1.25 55.3125 C13.3176365 60.05992045 26.39453924 65.26584988 32.625 77.4375 C36.06166652 86.13285881 36.34513604 96.48563056 33.25 105.3125 C29.45560581 113.82424914 23.93900906 119.75283611 15.40234375 123.59375 C-2.84079888 130.46868935 -21.8462386 128.02641052 -39.75 121.3125 C-39.75 112.7325 -39.75 104.1525 -39.75 95.3125 C-35.13 95.3125 -30.51 95.3125 -25.75 95.3125 C-25.75 100.9225 -25.75 106.5325 -25.75 112.3125 C-12.90269963 114.21580376 1.75467013 115.66825144 13.125 108.5 C17.34140502 104.15958307 18.82867188 99.52972254 19.31640625 93.6171875 C19.13987659 87.49056981 16.34942199 82.72938564 12.25 78.3125 C9.93322511 76.90004245 7.75129349 75.7097036 5.3125 74.5625 C4.62736328 74.22814941 3.94222656 73.89379883 3.23632812 73.54931641 C-0.85796499 71.58300217 -5.00303168 69.76410852 -9.19140625 68.0078125 C-10.57501343 67.42725098 -10.57501343 67.42725098 -11.98657227 66.83496094 C-13.78284683 66.089092 -15.5839427 65.35469402 -17.39038086 64.63378906 C-28.30998579 60.14160615 -35.4728531 54.05848357 -40.125 43.0625 C-41.5472418 34.52904923 -42.10929244 25.07619225 -37.75 17.3125 C-27.85432061 3.68801388 -16.28125079 -0.08534218 0 0 Z " fill="#FFFFFF" transform="translate(59.75,594.6875)"/>
<path d="M0 0 C12.21 0 24.42 0 37 0 C37 3.96 37 7.92 37 12 C33.7 12.33 30.4 12.66 27 13 C27.21804794 13.67475876 27.43609589 14.34951752 27.66075134 15.04472351 C29.76401843 21.55440698 31.86562127 28.06462588 33.96556759 34.57538128 C35.04398722 37.91877407 36.12294692 41.26199008 37.20336914 44.60473633 C43.26593891 63.36368099 49.20012974 82.15808994 55 101 C61.01986886 83.49601547 66.36724377 65.80310155 71.69360352 48.07952881 C73.5036799 42.05734436 75.31744547 36.03627548 77.13405228 30.01605797 C77.76332329 27.92809095 78.39023491 25.83942585 79.01693726 23.75068665 C79.39468292 22.4972496 79.77242859 21.24381256 80.16162109 19.95239258 C80.6595668 18.2953405 80.6595668 18.2953405 81.16757202 16.60481262 C82 14 82 14 83 12 C79.37 12 75.74 12 72 12 C72 8.04 72 4.08 72 0 C84.21 0 96.42 0 109 0 C109 3.96 109 7.92 109 12 C105.04 12 101.08 12 97 12 C96.76531006 13.1854541 96.53062012 14.3709082 96.28881836 15.59228516 C94.77690078 22.37426124 92.54161024 28.92737091 90.37890625 35.5234375 C89.91748778 36.94146791 89.45648313 38.35963304 88.99586487 39.77792358 C88.02351384 42.76963665 87.0487985 45.76056364 86.07208252 48.75085449 C83.80671488 55.68712749 81.55362039 62.62738891 79.30024719 69.56756592 C78.80602058 71.08958663 78.3116461 72.61155934 77.81712341 74.13348389 C73.85764883 86.31959366 69.94691527 98.51993936 66.125 110.75 C65.9007132 111.46742371 65.67642639 112.18484741 65.44534302 112.92401123 C64.2924587 116.61464799 63.14517176 120.30695804 62 124 C57.05 124 52.1 124 47 124 C38.67653154 99.12828588 30.36683742 74.25255807 22.25 49.3125 C21.96662781 48.44273529 21.68325562 47.57297058 21.39129639 46.67684937 C18.59877051 38.10079689 15.82737762 29.51796182 13.109375 20.91796875 C12.8948468 20.24566727 12.6803186 19.57336578 12.45928955 18.88069153 C11 14.2322022 11 14.2322022 11 12 C7.37 12 3.74 12 0 12 C0 8.04 0 4.08 0 0 Z " fill="#FFFFFF" transform="translate(379,597)"/>
<path d="M0 0 C12.21 0 24.42 0 37 0 C37 3.96 37 7.92 37 12 C32.545 12.495 32.545 12.495 28 13 C28.52464844 13.78117188 29.04929687 14.56234375 29.58984375 15.3671875 C38.16800109 28.17372005 46.57766712 41.09074335 55 54 C60.1664913 46.79646922 64.96078707 39.41168553 69.625 31.875 C70.58792969 30.32619141 70.58792969 30.32619141 71.5703125 28.74609375 C72.81260124 26.74773993 74.05386326 24.74874737 75.29394531 22.74902344 C77.52086539 19.16071203 79.75941232 15.57978951 82 12 C78.7 12 75.4 12 72 12 C72 8.04 72 4.08 72 0 C84.21 0 96.42 0 109 0 C109 3.96 109 7.92 109 12 C105.37 12 101.74 12 98 12 C97.34 13.65 96.68 15.3 96 17 C94.68491332 19.10356316 93.34275576 21.14625972 91.9375 23.1875 C91.044199 24.50558032 90.15239556 25.82467625 89.26171875 27.14453125 C88.5025415 28.26915771 88.5025415 28.26915771 87.72802734 29.41650391 C84.19001319 34.70603001 80.72581225 40.0444804 77.25 45.375 C75.81805667 47.57053972 74.38577681 49.76586001 72.953125 51.9609375 C72.33598633 52.90759277 71.71884766 53.85424805 71.08300781 54.82958984 C69.92453928 56.59281914 68.7367508 58.34062174 67.44662476 60.00993347 C63.07927722 65.88571132 62.12340484 70.26094105 62.1953125 77.50390625 C62.18160614 78.4677977 62.16789978 79.43168915 62.15377808 80.42478943 C62.11670637 83.47117771 62.12017755 86.51591959 62.125 89.5625 C62.10685726 91.64130127 62.08604965 93.72008108 62.0625 95.79882812 C62.01086282 100.8661585 61.99555448 105.9324211 62 111 C66.95 111 71.9 111 77 111 C77 114.96 77 118.92 77 123 C61.82 123 46.64 123 31 123 C31 119.04 31 115.08 31 111 C36.28 111 41.56 111 47 111 C49.11430453 78.86256066 49.11430453 78.86256066 35.78076172 51.10058594 C32.39981767 47.11242545 29.71162854 42.63215023 26.875 38.25 C25.69286753 36.49813215 24.50803017 34.74808606 23.3203125 33 C21.19386389 29.84250921 19.17114402 26.65663905 17.2421875 23.375 C13.41111098 16.3650527 13.41111098 16.3650527 7.1640625 11.86328125 C4.11163979 11.43740589 4.11163979 11.43740589 0 12 C0 8.04 0 4.08 0 0 Z " fill="#FFFFFF" transform="translate(854,597)"/>
<path d="M0 0 C13.86 0 27.72 0 42 0 C42 3.96 42 7.92 42 12 C37.38 12 32.76 12 28 12 C28 44.67 28 77.34 28 111 C40.21 111 52.42 111 65 111 C65 105.72 65 100.44 65 95 C69.29 95 73.58 95 78 95 C78 104.24 78 113.48 78 123 C52.26 123 26.52 123 0 123 C0 119.04 0 115.08 0 111 C4.62 111 9.24 111 14 111 C14 78.33 14 45.66 14 12 C9.38 12 4.76 12 0 12 C0 8.04 0 4.08 0 0 Z " fill="#FFFFFF" transform="translate(677,597)"/>
<path d="M0 0 C13.86 0 27.72 0 42 0 C42 3.96 42 7.92 42 12 C37.38 12 32.76 12 28 12 C28 44.67 28 77.34 28 111 C40.21 111 52.42 111 65 111 C65 105.72 65 100.44 65 95 C69.29 95 73.58 95 78 95 C78 104.24 78 113.48 78 123 C52.26 123 26.52 123 0 123 C0 119.04 0 115.08 0 111 C4.62 111 9.24 111 14 111 C14 78.33 14 45.66 14 12 C9.38 12 4.76 12 0 12 C0 8.04 0 4.08 0 0 Z " fill="#FFFFFF" transform="translate(589,597)"/>
</svg>
